<svg xmlns="http://www.w3.org/2000/svg" viewBox="0 0 19.9 20.1"><defs><style>.cls-1{fill:#005bac;}</style></defs><g id="레이어_2" data-name="레이어 2"><g id="레이어_1-2" data-name="레이어 1"><g id="_icons" data-name=" icons"><path class="cls-1" d="M18.2,14.3a2.39,2.39,0,0,1,.5-1.4h0a4,4,0,0,0,0-5.7,2,2,0,0,1-.6-1.4,4,4,0,0,0-4-4,2,2,0,0,1-1.4-.6A4,4,0,0,0,7,1.2a1.21,1.21,0,0,1-1.2.7,4,4,0,0,0-4,4,2,2,0,0,1-.6,1.4,4,4,0,0,0,0,5.7,2,2,0,0,1,.6,1.4,4,4,0,0,0,4,4,2,2,0,0,1,1.4.6A4.3,4.3,0,0,0,10,20.1a3.78,3.78,0,0,0,2.8-1.2,2,2,0,0,1,1.4-.6A4,4,0,0,0,18.2,14.3Zm-4,2a3.63,3.63,0,0,0-2.8,1.2,1.93,1.93,0,0,1-2.8,0,4,4,0,0,0-2.8-1.2,2,2,0,0,1-2-2,3.63,3.63,0,0,0-1.2-2.8,1.93,1.93,0,0,1,0-2.8A4,4,0,0,0,3.8,5.9a2,2,0,0,1,2-2A3.63,3.63,0,0,0,8.6,2.7a1.93,1.93,0,0,1,2.8,0,4,4,0,0,0,2.8,1.2,2,2,0,0,1,2,2,3.63,3.63,0,0,0,1.2,2.8,1.93,1.93,0,0,1,0,2.8l.7.7-.7-.7a4,4,0,0,0-1.2,2.8A2,2,0,0,1,14.2,16.3Z"/></g><path class="cls-1" d="M12.29,7.15a1.11,1.11,0,0,0-1.4.4l-1.4,2.6-.4-.5a1.08,1.08,0,0,0-1.4-.2,1.08,1.08,0,0,0-.2,1.4l1.4,1.8a.91.91,0,0,0,.8.4h.1a1,1,0,0,0,.8-.5l2.1-4A1.11,1.11,0,0,0,12.29,7.15Z"/></g></g></svg>