<svg xmlns="http://www.w3.org/2000/svg" viewBox="0 0 23.24 23.26"><defs><style>.cls-1{fill:#fff;}</style></defs><g id="레이어_2" data-name="레이어 2"><g id="레이어_1-2" data-name="레이어 1"><g id="레이어_2-2" data-name="레이어 2"><g id="레이어_1-2-2" data-name="레이어 1-2"><path class="cls-1" d="M22.06,23.26a1.22,1.22,0,0,1-.9-.4l-4.7-4.7-.2.1A10.14,10.14,0,0,1,4.06,2.06a10.09,10.09,0,0,1,14.2,2,10.2,10.2,0,0,1,0,12.2l-.1.2,4.7,4.7a1.15,1.15,0,0,1,0,1.7h0A.91.91,0,0,1,22.06,23.26ZM10.26,2.76a7.45,7.45,0,0,0-7.5,7.6,7.51,7.51,0,0,0,7.6,7.5,7.45,7.45,0,0,0,7.5-7.6A7.45,7.45,0,0,0,10.26,2.76Z"/></g></g></g></g></svg>