<svg xmlns="http://www.w3.org/2000/svg" viewBox="0 0 18 18"><defs><style>.cls-1{fill:#66605b;}.cls-2{fill:none;}</style></defs><g id="레이어_2" data-name="레이어 2"><g id="레이어_1-2" data-name="레이어 1"><path class="cls-1" d="M15.43,16.54a.76.76,0,0,1-.76-.76v-1c0-2.05-1.69-3.93-4.11-4.58a.76.76,0,0,1-.2-1.39A3.18,3.18,0,1,0,7,8.84a.77.77,0,0,1,.36.76.76.76,0,0,1-.56.63c-2.42.65-4.11,2.53-4.11,4.58v1a.76.76,0,1,1-1.52,0v-1A6.26,6.26,0,0,1,5.13,9.22a4.7,4.7,0,1,1,7.12,0,6.26,6.26,0,0,1,3.94,5.59v1A.76.76,0,0,1,15.43,16.54Z"/><rect class="cls-2" width="18" height="18"/></g></g></svg>