<svg xmlns="http://www.w3.org/2000/svg" viewBox="0 0 18 18"><defs><style>.cls-1{fill:#66605b;}.cls-2{fill:none;}</style></defs><g id="레이어_2" data-name="레이어 2"><g id="레이어_1-2" data-name="레이어 1"><path class="cls-1" d="M8.17,17.54A8.38,8.38,0,0,1,.5,9.86V9A8.55,8.55,0,0,1,8.28.46H9.83a8.48,8.48,0,0,1,7.5,6.91A9.47,9.47,0,0,1,17.5,9a8.45,8.45,0,0,1-7.77,8.54ZM12.8,9.88V10a10.08,10.08,0,0,1-2.4,5.75l-.24.28h.55l0-.08h0l.1,0,.2-.08.24-.1h0s.09,0,.11-.07l.24-.09.24-.1h0a.21.21,0,0,0,.11-.08,1,1,0,0,0,.28-.15l.2-.12h0s.09-.06.12-.08h.07v0l.15-.11.16-.11a.49.49,0,0,0,.13-.08h.07l0-.05.14-.11a.91.91,0,0,0,.16-.11.29.29,0,0,0,.13-.08h.07l0-.05.35-.34c.09-.07.18-.12.21-.22a.91.91,0,0,0,.11-.16,1.18,1.18,0,0,1,.11-.15.43.43,0,0,0,.22-.22l.11-.15A1.18,1.18,0,0,1,15,13l.05-.05v-.07s.06,0,.08-.1a1,1,0,0,0,.08-.2l0-.1a.54.54,0,0,0,.13-.23.82.82,0,0,0,.09-.19.66.66,0,0,1,0-.11l.05-.05v-.07a.67.67,0,0,0,.09-.26,1,1,0,0,1,0-.12.71.71,0,0,0,.06-.23.63.63,0,0,0,.08-.26s0-.08,0-.12a.94.94,0,0,0,0-.16.48.48,0,0,0,.1-.33.7.7,0,0,0,.09-.44V9.69ZM6.08,15.44a.56.56,0,0,0,.35.19.63.63,0,0,0,.26.08.47.47,0,0,1,.17,0A.35.35,0,0,0,7,15.8a.67.67,0,0,0,.26.09h.37l-.24-.29A10.89,10.89,0,0,1,5,9.85l0-.15H1.79l.12.25a.62.62,0,0,1,.07.36v.07l0,0s0,.06,0,.14a1.06,1.06,0,0,0,.05.23s0,.1,0,.12a.47.47,0,0,0,.06.21,1.36,1.36,0,0,0,.08.28,1,1,0,0,1,0,.12.65.65,0,0,0,.06.21v0l0,.09A.77.77,0,0,1,2.5,12a.6.6,0,0,0,.14.24.28.28,0,0,1,.06.09.41.41,0,0,0,.12.17l.05.09a.77.77,0,0,0,.12.17.28.28,0,0,1,.06.09.51.51,0,0,0,.12.18.28.28,0,0,1,.05.08.8.8,0,0,0,.12.18.24.24,0,0,1,.06.08.42.42,0,0,0,.07.13.74.74,0,0,0,.22.31l.44.44a.77.77,0,0,0,.17.12l.09,0,.05.05h.07l.14.12a.62.62,0,0,0,.18.13l.08,0a.8.8,0,0,0,.18.12l.08.05a.51.51,0,0,0,.18.12.24.24,0,0,1,.08.06.55.55,0,0,0,.4.14A.63.63,0,0,0,6.08,15.44Zm.35-5.55a8.63,8.63,0,0,0,2.49,5.34l.13.12.12-.13a9.1,9.1,0,0,0,2.49-5.33l0-.19H6.41ZM10.66,2.4a9.88,9.88,0,0,1,2.39,5.74l0,.16H16.3l-.13-.25a.7.7,0,0,1-.06-.36V7.62l-.06,0s0-.06,0-.14a1.06,1.06,0,0,0,0-.23.41.41,0,0,1,0-.12.47.47,0,0,0-.06-.21,2.55,2.55,0,0,0-.08-.28,1,1,0,0,1,0-.12.48.48,0,0,0-.07-.21v0l0-.09A.77.77,0,0,1,15.59,6a.79.79,0,0,0-.15-.24l0-.09a.77.77,0,0,0-.12-.17.26.26,0,0,1,0-.09.59.59,0,0,0-.13-.17L15,5.13A.69.69,0,0,0,14.92,5a.16.16,0,0,1-.05-.08,1.11,1.11,0,0,0-.12-.18.24.24,0,0,1-.06-.08.66.66,0,0,0-.08-.13.72.72,0,0,0-.21-.31L14,3.73a.77.77,0,0,0-.17-.12l-.09,0,0-.05h-.07a.69.69,0,0,1-.14-.12.43.43,0,0,0-.18-.12l-.08-.06A1.11,1.11,0,0,0,13,3.09l-.09,0a.41.41,0,0,0-.17-.12l-.09-.06a.52.52,0,0,0-.4-.14A.6.6,0,0,0,12,2.56a.5.5,0,0,0-.34-.18.54.54,0,0,0-.26-.09.43.43,0,0,1-.17,0,.48.48,0,0,0-.18,0,.67.67,0,0,0-.26-.09H10.4Zm-1.74.38A9,9,0,0,0,6.43,8.11l0,.19h5.26V8.11A8.68,8.68,0,0,0,9.17,2.77L9,2.65ZM2.16,7.36a.52.52,0,0,0-.09.33A.72.72,0,0,0,2,8.13V8.3H5V8.14A10.61,10.61,0,0,1,7.44,2.31L7.66,2H7v.09H7l-.19.08a1.18,1.18,0,0,0-.25.1s0,0,0,0-.09.06-.12.08l-.24.09a2,2,0,0,0-.23.1h0s-.09.06-.12.08H5.71l0,0-.14.11a.91.91,0,0,0-.16.11A.29.29,0,0,0,5.26,3H5.19l0,0L5,3.15a.83.83,0,0,0-.15.11.29.29,0,0,0-.13.08H4.66v.05l-.14.1V3.35L3.86,4c-.12.08-.22.14-.22.29h0s0,0-.06.08a.7.7,0,0,0-.09.17.43.43,0,0,0-.18.2s-.07.1-.11.15A1,1,0,0,1,3.08,5L3,5.09v.07H3S3,5.2,3,5.25a.72.72,0,0,0-.18.37.38.38,0,0,0-.08.17A.55.55,0,0,0,2.6,6a.66.66,0,0,1,0,.11l-.05,0v.07a.54.54,0,0,0-.09.26.41.41,0,0,1,0,.12,1.06,1.06,0,0,0,0,.23.67.67,0,0,0-.09.26,1,1,0,0,1,0,.12A1.42,1.42,0,0,0,2.16,7.36Z"/><rect class="cls-2" width="18" height="18"/></g></g></svg>