<?xml version="1.0" encoding="UTF-8"?>
<svg id="_레이어_1" data-name="레이어 1" xmlns="http://www.w3.org/2000/svg" xmlns:xlink="http://www.w3.org/1999/xlink" viewBox="0 0 300 92.56">
  <defs>
    <style>
      .cls-1 {
        fill: url(#_무제_그라디언트_21-13);
      }

      .cls-1, .cls-2, .cls-3, .cls-4, .cls-5, .cls-6, .cls-7, .cls-8, .cls-9, .cls-10, .cls-11, .cls-12, .cls-13, .cls-14, .cls-15, .cls-16, .cls-17, .cls-18, .cls-19, .cls-20, .cls-21, .cls-22, .cls-23 {
        stroke-width: 0px;
      }

      .cls-2, .cls-10 {
        fill: #000;
      }

      .cls-3 {
        fill: url(#_무제_그라디언트_21);
      }

      .cls-4 {
        fill: url(#_무제_그라디언트_21-6);
      }

      .cls-5 {
        fill: url(#_무제_그라디언트_21-3);
      }

      .cls-6 {
        fill: url(#_무제_그라디언트_21-5);
      }

      .cls-7 {
        fill: url(#_무제_그라디언트_21-10);
      }

      .cls-8 {
        fill: url(#_무제_그라디언트_21-7);
      }

      .cls-9 {
        fill: url(#_무제_그라디언트_21-19);
      }

      .cls-10 {
        fill-rule: evenodd;
      }

      .cls-11 {
        fill: url(#_무제_그라디언트_21-17);
      }

      .cls-12 {
        fill: url(#_무제_그라디언트_21-18);
      }

      .cls-13 {
        fill: url(#_무제_그라디언트_21-12);
      }

      .cls-14 {
        fill: url(#_무제_그라디언트_21-15);
      }

      .cls-15 {
        fill: url(#_무제_그라디언트_21-16);
      }

      .cls-16 {
        fill: url(#_무제_그라디언트_21-21);
      }

      .cls-17 {
        fill: url(#_무제_그라디언트_21-4);
      }

      .cls-18 {
        fill: url(#_무제_그라디언트_21-14);
      }

      .cls-19 {
        fill: url(#_무제_그라디언트_21-2);
      }

      .cls-20 {
        fill: url(#_무제_그라디언트_21-9);
      }

      .cls-21 {
        fill: url(#_무제_그라디언트_21-20);
      }

      .cls-22 {
        fill: url(#_무제_그라디언트_21-11);
      }

      .cls-23 {
        fill: url(#_무제_그라디언트_21-8);
      }
    </style>
    <radialGradient id="_무제_그라디언트_21" data-name="무제 그라디언트 21" cx="5550.91" cy="-2688.16" fx="5550.91" fy="-2688.16" r="11.7" gradientTransform="translate(5890.36 -1884.12) rotate(135.68) scale(1 -1)" gradientUnits="userSpaceOnUse">
      <stop offset=".15" stop-color="#ab0334"/>
      <stop offset=".42" stop-color="#be2745"/>
      <stop offset=".99" stop-color="#f06578"/>
      <stop offset="1" stop-color="#f16679"/>
    </radialGradient>
    <radialGradient id="_무제_그라디언트_21-2" data-name="무제 그라디언트 21" cx="5551.79" cy="-2688.87" fx="5551.79" fy="-2688.87" r="13.9" xlink:href="#_무제_그라디언트_21"/>
    <radialGradient id="_무제_그라디언트_21-3" data-name="무제 그라디언트 21" cx="5552.78" cy="-2688.9" fx="5552.78" fy="-2688.9" r="14.37" xlink:href="#_무제_그라디언트_21"/>
    <radialGradient id="_무제_그라디언트_21-4" data-name="무제 그라디언트 21" cx="5553.4" cy="-2689.4" fx="5553.4" fy="-2689.4" r="16.12" xlink:href="#_무제_그라디언트_21"/>
    <radialGradient id="_무제_그라디언트_21-5" data-name="무제 그라디언트 21" cx="5549.17" cy="-2693.32" fx="5549.17" fy="-2693.32" r="25.97" xlink:href="#_무제_그라디언트_21"/>
    <radialGradient id="_무제_그라디언트_21-6" data-name="무제 그라디언트 21" cx="5554.43" cy="-2693.23" fx="5554.43" fy="-2693.23" r="20.45" xlink:href="#_무제_그라디언트_21"/>
    <radialGradient id="_무제_그라디언트_21-7" data-name="무제 그라디언트 21" cx="5553.73" cy="-2697.06" fx="5553.73" fy="-2697.06" r="20.83" xlink:href="#_무제_그라디언트_21"/>
    <radialGradient id="_무제_그라디언트_21-8" data-name="무제 그라디언트 21" cx="5549.7" cy="-2697.41" fx="5549.7" fy="-2697.41" r="25.93" xlink:href="#_무제_그라디언트_21"/>
    <radialGradient id="_무제_그라디언트_21-9" data-name="무제 그라디언트 21" cx="5548.37" cy="-2698.75" fx="5548.37" fy="-2698.75" r="29.47" xlink:href="#_무제_그라디언트_21"/>
    <radialGradient id="_무제_그라디언트_21-10" data-name="무제 그라디언트 21" cx="5550.62" cy="-2689.3" fx="5550.62" fy="-2689.3" r="10.68" xlink:href="#_무제_그라디언트_21"/>
    <radialGradient id="_무제_그라디언트_21-11" data-name="무제 그라디언트 21" cx="5549.63" cy="-2690.28" fx="5549.63" fy="-2690.28" r="10.73" xlink:href="#_무제_그라디언트_21"/>
    <radialGradient id="_무제_그라디언트_21-12" data-name="무제 그라디언트 21" cx="5549.63" cy="-2690.29" fx="5549.63" fy="-2690.29" r="10.72" xlink:href="#_무제_그라디언트_21"/>
    <radialGradient id="_무제_그라디언트_21-13" data-name="무제 그라디언트 21" cx="5549.63" cy="-2690.28" fx="5549.63" fy="-2690.28" r="10.81" xlink:href="#_무제_그라디언트_21"/>
    <radialGradient id="_무제_그라디언트_21-14" data-name="무제 그라디언트 21" cx="5549.63" cy="-2690.28" fx="5549.63" fy="-2690.28" r="10.72" xlink:href="#_무제_그라디언트_21"/>
    <radialGradient id="_무제_그라디언트_21-15" data-name="무제 그라디언트 21" cx="5549.63" cy="-2690.28" fx="5549.63" fy="-2690.28" r="10.72" xlink:href="#_무제_그라디언트_21"/>
    <radialGradient id="_무제_그라디언트_21-16" data-name="무제 그라디언트 21" cx="5544.5" cy="-2697.93" fx="5544.5" fy="-2697.93" r="30.28" xlink:href="#_무제_그라디언트_21"/>
    <radialGradient id="_무제_그라디언트_21-17" data-name="무제 그라디언트 21" cx="5911.29" cy="-1244.59" fx="5911.29" fy="-1244.59" r="33.44" gradientTransform="translate(5661.62 -2161.29) rotate(146.58) scale(1 -1)" xlink:href="#_무제_그라디언트_21"/>
    <radialGradient id="_무제_그라디언트_21-18" data-name="무제 그라디언트 21" cx="5947.13" cy="-762.77" fx="5947.13" fy="-762.77" r="42.01" gradientTransform="translate(5571.54 -2270.49) rotate(149.86) scale(1 -1)" xlink:href="#_무제_그라디언트_21"/>
    <radialGradient id="_무제_그라디언트_21-19" data-name="무제 그라디언트 21" cx="5621.55" cy="-2419.69" fx="5621.55" fy="-2419.69" r="42.14" gradientTransform="translate(5837.11 -1930.34) rotate(137.74) scale(1 -1)" xlink:href="#_무제_그라디언트_21"/>
    <radialGradient id="_무제_그라디언트_21-20" data-name="무제 그라디언트 21" cx="5670.02" cy="-2262.1" fx="5670.02" fy="-2262.1" r="44.6" gradientTransform="translate(5808.68 -1962.46) rotate(138.9) scale(1 -1)" xlink:href="#_무제_그라디언트_21"/>
    <radialGradient id="_무제_그라디언트_21-21" data-name="무제 그라디언트 21" cx="5620.61" cy="-2414.36" fx="5620.61" fy="-2414.36" r="41.88" gradientTransform="translate(5837.11 -1930.34) rotate(137.74) scale(1 -1)" xlink:href="#_무제_그라디언트_21"/>
  </defs>
  <g>
    <path class="cls-3" d="M39.65,69.5s3.94,7.67,9.45,9.49c1.35.44,2.6.15,2.85-.56.26-.73-.53-1.91-1.55-2.62-2.3-1.59-4.99-1.49-8.71-4.54-.28-.23-2.04-1.77-2.04-1.77Z"/>
    <path class="cls-19" d="M45.63,77.61c2.6,2.15,6.25,5.06,4.03,6.14-2.22,1.08-6.64-2.95-8.92-7.67-1.65-3.41-1.39-6.49-1.39-6.49,0,0,2.47,4.86,6.28,8.02Z"/>
    <path class="cls-5" d="M44.77,81.48c.97,2.73,2.17,7.27.1,6.63-2.08-.64-7.92-10.97-6.06-18.52,0,0,4.98,9.16,5.96,11.89Z"/>
    <path class="cls-17" d="M34.7,89.53c3.12,6.17,6.19-3.66,4.31-9.82-1.66-5.41-.57-10.22-.57-10.22,0,0-6.86,13.87-3.74,20.04Z"/>
    <path class="cls-6" d="M38.01,68.95s-5.1,9.51-6.89,16.24c-1.33,5-4.24,7.88-6.13,7.3-1.7-.52-2.5-4.13-1.86-6.54,1.35-5.08,8.9-14.44,14.88-17Z"/>
    <path class="cls-4" d="M26.76,76.93c-5.51,6.33-12.02,11.77-13.94,9.19-1.91-2.58-.69-8.18,9.86-14.7,9.91-6.13,15.02-3.02,15.02-3.02,0,0-5.05,1.76-10.94,8.54Z"/>
    <path class="cls-8" d="M23.42,70.05c6.39-2.73,13.51-3.17,13.51-3.17,0,0-10.22-5.65-20.18-3.34-7.25,1.69-16.26,8.01-14.38,12.01,2.39,5.11,12.14-1.68,21.05-5.49Z"/>
    <path class="cls-23" d="M21.46,63.3C13.53,64.04-.26,62.31,0,53.47c0,0,10.75-7.84,23.35-.03,9.78,6.06,13.37,12.34,13.37,12.34,0,0-6.11-3.34-15.27-2.48Z"/>
    <path class="cls-20" d="M36.23,63.36s-1.09-14.54-10.52-24.06C14.31,27.79,7.37,29.62,5.1,30.11c-4.79,1.02-2.8,12.65,5.24,16.37,16.05,7.41,25.89,16.88,25.89,16.88Z"/>
    <path class="cls-7" d="M39.74,69.31s5.74,5.98,11.02,4.83c4.28-.94.65-2.86-.97-3.23-1.62-.37-10.04-1.59-10.04-1.59Z"/>
    <path class="cls-22" d="M39.79,68.89s8.24,5.46,13.1-.24c-4-1.01-3.78-1.05-5.86-1-3.3.08-6.61,1.6-7.24,1.24Z"/>
    <path class="cls-13" d="M39.7,68.49s7.9,1.57,12.27-3.77c0,0-4.49-1.44-8.05.78-2.36,1.48-4.22,2.99-4.22,2.99Z"/>
    <path class="cls-1" d="M39.47,67.77s8.21-1.59,9.58-6.33c0,0-4.01-.25-6.74,3.24-1.94,2.47-2.83,3.09-2.83,3.09Z"/>
    <path class="cls-18" d="M39.19,67.62s6.06-3.15,5.25-7.9c0,0-2.39-.32-4.19,3.27-1.81,3.58-1.05,4.63-1.05,4.63Z"/>
    <path class="cls-14" d="M38.99,67.66s2.84-4.35.05-7.33c0,0-3.67,3.31-.05,7.33Z"/>
    <path class="cls-15" d="M41.31,32.11c-3.81-14.57-16.44-23.63-19.52-20.39-3.09,3.25-4.44,14.83,3.96,27.44,7.75,11.62,11.52,20.83,11.52,20.83,0,0,7.85-13.3,4.04-27.88Z"/>
    <path class="cls-11" d="M40.46,58s14.75-15.78,14.78-32.69c.03-16.91-7.53-27.61-12.89-24.89-4.54,2.31-9.48,8.13-2.48,24.07,7,15.94,2.59,29.02.59,33.51Z"/>
    <path class="cls-12" d="M42.42,57.44s18.09-4.45,28.5-22.85c11.73-20.72,3.01-31.82,3.01-31.82,0,0-13.4,8.86-15.82,21.99-2.43,13.13-4.73,20.06-15.69,32.67Z"/>
    <path class="cls-9" d="M46.31,57.88s33.56-6.32,48.76-28.96c11.68-17.4-8.92-14.7-17.62-4.76-4.63,5.29-14.61,26.5-31.14,33.72Z"/>
    <path class="cls-21" d="M48.2,59.43s38.12,5.85,58.94-10.75c18.42-14.69,1.21-21.94-13.56-13.01-8.24,4.98-41.61,24.24-45.38,23.77Z"/>
    <path class="cls-16" d="M51.94,62.13s27.44,15.55,57.33,10.09c16.41-2.99,17.11-7.92,13.88-11.42-3.22-3.5-10.03-9.01-27.23-6.32-11.43,1.79-27.12,8.49-43.98,7.64Z"/>
  </g>
  <path class="cls-2" d="M202.95,69.44h-2.1v1.26h2.1v8.82h1.56v-13.7h-1.56v3.62ZM205.98,79.52h1.55v-13.7h-1.55v13.7ZM217.07,68.17h-1.71c.03-.28.05-.55.05-.84v-.83h-5.44v1.25h3.86c-.05.89-.51,4.38-4.62,6.65l.91,1.14s4-1.84,5.05-6.12h1.91v1.99h-2.09v1.25h2.09v6.85h1.55v-13.7h-1.55v2.35h0ZM220.11,79.52h1.56v-13.7h-1.56v13.7ZM251.27,79.52h1.55v-13.7h-1.55v13.7ZM247.28,69.38h-3.61v-2.91h-1.55v6.45c0,1.3.53,2.13,2.33,2.13h4.39v-8.58h-1.55v2.91ZM247.28,73.79h-2.66c-.82,0-.95-.23-.95-.9v-2.27h3.61v3.17h0ZM223.32,74h13.99v-1.26h-13.99v1.26ZM234.62,70.53h-6.8v-.98h6.54v-3.39h-8.1v1.26h6.55v.87h-6.55v3.5h8.36v-1.25h0ZM273.15,73.54h-1.73c-.71,0-.96-.14-.96-.82v-4.77h4.45v-1.26h-6.01v6.06c0,1.43.51,2.04,2.35,2.04h2.08c1.96,0,3.57-.47,3.57-.47l-.17-1.18s-1.69.4-3.58.4ZM266.34,65.82h-1.56v10.97h1.56v-10.97ZM261.71,66.47h-1.55v2.52h-3.38v-2.52h-1.56v5.67c0,1.25.52,2.01,2.33,2.01h4.15v-7.68h0ZM260.16,72.89h-2.44c-.74,0-.94-.27-.94-.78v-1.87h3.38v2.65ZM259.78,78.57v-2.57h-1.56v2.59c0,1.21.61,2.02,2.4,2.02h6.12v-1.27h-5.96c-.81,0-1-.28-1-.78ZM227.83,78.37h6.54v-3.38h-8.1v1.26h6.55v.87h-6.55v3.5h8.36v-1.27h-6.8v-.98h0ZM279.3,70.23v-4.41h-1.56v13.7h1.56v-8.03h2.12v-1.26h-2.12ZM198.81,70.68c.12-.35.21-.71.28-1.08.36-2.15.21-3.15.21-3.15h-1.57s.01.43-.03,1.12c-.07.94-.14,4.32-3.89,7.01l1.02,1.14s2.09-1.34,3.37-3.65c.53.32,1.96,1.35,2.82,3.44l1.41-1.01s-1.46-2.61-3.62-3.82Z"/>
  <g>
    <path class="cls-10" d="M140.59,24.34c-.16.05-.14-.08-.28-.05-.13-1.34-.88-2.06-1.45-2.96-.33-.42-1.28-.68-1.68-1.22-.45,0-.42-.47-.89-.45-.34-.49-1.01-.66-1.45-1.06-.61-.15-1.31-.35-1.9-.67-1.32.38-1.42-.6-2.12-1.12.22-.61-.4-1.21-.33-1.84,0-.2-.2-.18-.28-.28.16-.79.74-1.01,1.28-1.17.21.1.73-.04,1.06-.05.73-.03,1.47.08,2.06.17.03.19.21.14.34.11.21.16.33.42.72.39.46.56,1.46.69,1.5,1.5.39.27.48.48.89.73.25.59.67,1.03.78,1.67.01.09-.03.2,0,.28.18.6.53,1.12.67,1.67.09.38.03.78.11,1.17.06.3.27.52.39.83.16.4.21,1.26.61,1.73-.08.23.06.39-.06.61"/>
    <path class="cls-10" d="M204.43,23.7c1.27.41,2.67.34,3.12,1.56.14.14.19.06.39.17-.08.13-.12.1-.05.28-.18-.03-.22.08-.34.11.19.08.4.48.11.56.1.12.08.27.28.17-.02.29,0,.68-.28.84.24.2.03.51.39.61-.04.18-.08.37-.17.5-.2.05-.14,0-.34.05.05.3-.12.36-.22.5.34.3.01.57-.05,1-1.39-.38-2.3-1.02-3.01-2.17h-.56c-.4-.17-.34-.65-.45-1.06-.09-.37-.33-.71-.34-1.06,0-.37.25-.66.22-1,.18-.12.35-.25.56-.33-.11-.11-.03-.26,0-.39.28-.07.67.06.72-.34"/>
    <path class="cls-10" d="M167.47,52.98c-.07.18,0,.17-.11.34-1.2-.05-2.76.54-3.84.05-.07.05-.17.09-.22.17-.32-.21-.69-.01-.95-.28-.99.3-2.15-.19-3.23,0-.25-.06-.74-.23-.89-.05-1.07-.3-2.02-.33-2.9.05-.44-.25-.67-.71-1.34-.72-.09-.15-.27-.22-.22-.5-.21-.19-.56-.51-.5-.78-.86-.74-.47-1.42-.06-2.46.15-.38.55-1.03,1-1.17.67-.65,1.23-1.41,1.95-2.01v-.23c.87-.87,1.62-1.87,2.4-2.84.73-.27.93-1.08,1.56-1.45.53-.97,1.31-1.7,1.89-2.62-.02-.22,0-.41.11-.5-.81-.46-2.78.09-3.9.33-.31.07-.57.11-.78.28-.89.15-1.81.57-2.68.56-.08.05-.12.14-.11.28-1.05.3-1.71-.01-2.51-.39-.17.04.05.12,0,.22-.36-.1-.38-.55-.89-.5-.16-.21-.28-.47-.61-.5-.27-.48-.64-.86-.89-1.23-.69-1.47-.59-4.09.22-5.51.19-1.34.92-2.61,1.39-3.84.42-.26.52-.86.84-1.23.36-.12.66-.31.89-.56,1.15.11,2.65.2,3.34,1.23.15.09.24-.03.39.11.15,1.32-.65,2.5-1.12,3.45-.22-.02-.28.13-.5.11-.13.27-.53.49-.72.83-.11.19-.1.53-.22.78-.28.58-.66,1.2-.84,1.78-.09.28-.04.66-.11.95-.09.33-.26.51-.22.95.04.54.2,1.32.78,1.62,1.61.11,3.2-.27,4.68-.61.5-.11.94-.14,1.4-.22.16-.03.29-.19.44-.22.28-.07.54,0,.78-.06.45-.13,1.21-.59,2.06-.34.54.35,1.13.71,1.67.89.61.39.81,1.19,1.17,1.84-.21,1.13-.97,1.71-1.45,2.56-.16.01-.23.11-.39.11-.08.79-1.08.95-1.06,1.67-.35.06-.62.48-.95.72-.41.76-.99,1.35-1.62,1.9-.79,1.25-1.84,2.3-2.84,3.45-.35.4-.69.88-.89,1.39.44.36,1.2.21,1.62.61.96.05,2,.07,2.9,0,.1-.02,0-.26.22-.16-.03.39.48-.34.56-.56.22-.03.24,0,.39-.17.17-.02.21.08.33.11.12-.09.34-.06.39-.22.96.19,2.22.16,3.18.67.42-.19.61.17.95.11.18.51,1.17.69,1.11,1.22-.04.41-.59.39-1.06.55"/>
    <path class="cls-10" d="M284.06,45.48c.16.01.24.1.22.28-.16-.01-.24-.1-.22-.28"/>
    <path class="cls-10" d="M265.39,49.1c.09.09.25.12.33.22,0,.21-.25.16-.45.17-.01-.24.24-.17.11-.39"/>
    <path class="cls-10" d="M263.72,49.82h-.33c.02-.18.3-.21.33,0"/>
    <path class="cls-10" d="M146.33,50.92c.09.37-.06.98-.45,1.06.04-.25.21-.83.45-1.06"/>
    <path class="cls-10" d="M223.66,51.56c.1.05.19.11.17.28-.22.07-.17-.13-.17-.28"/>
    <path class="cls-10" d="M223.43,52.01c-.04.11-.17.23-.28.11.04-.11.2-.2.28-.11"/>
    <path class="cls-10" d="M222.71,52.23c.35.04-.05.27-.11.39-.19-.14.12-.25.11-.39"/>
    <path class="cls-10" d="M221.82,52.73c.12-.01.18.04.17.17-.1-.11-.22.01-.22.16-.17.03-.25-.05-.22-.22.08.08.29.05.28-.11"/>
    <path class="cls-10" d="M221.2,53.06s.06.12.05.22c-.33-.17-.65.43-.84.05.32-.07.46-.13.78-.28"/>
    <path class="cls-10" d="M220.37,53.4c-.06.23-.71.44-.83.17.37-.01.46-.16.83-.17"/>
    <path class="cls-10" d="M166.19,53.6h.34c.02.2-.38.26-.34,0"/>
    <path class="cls-10" d="M189.6,54.57c.1,0,.12-.07.22-.06.02.1-.04.11-.11.11.02.05.05.1.11.11-.05.14-.25-.05-.22-.17"/>
    <path class="cls-10" d="M188.71,56.64h.16c-.05.2.1.3,0,.39-.14-.04-.19-.18-.16-.39"/>
    <path class="cls-10" d="M188.21,58.92c.07.02.09.1.17.11-.03.1-.02.24-.17.22-.1-.1.04-.14,0-.33"/>
    <path class="cls-10" d="M285,71.45c.22-.04.36.45.06.44-.08-.19.03-.25-.06-.44"/>
    <path class="cls-10" d="M288.4,91.72c.08.02.05.14.06.22h-.17c-.06-.18.09-.13.11-.22"/>
    <path class="cls-10" d="M188.77,62.43c0-.39-.23-.65-.28-1.11-.09.39.14.78.28,1.11M189.44,55.91c.07,0,.05.1.11.11.02-.12.29,0,.33-.11,0-.1-.04-.19-.11-.22-.01.29-.3.02-.34.22M189.27,24.32c.2-.45.39-1.46.28-2.07-.21.52-.42,1.52-.28,2.07M189.38,53.96c.17.44.03,1.04.11,1.62.16.04.27-.41.33-.11.32-.87.17-2.58.34-3.74-.01-.17-.15-.22-.22-.33-.03-.18.14-.2.22-.11.02-.43.04-.86-.22-1.01-.01-.14.08-.18.22-.16-.14-.67.25-1.75-.28-2.23-.02-.12.08-.11.17-.11.08-.32-.19-.29-.28-.44-.06-.17.12-.1.22-.11v-.45c-.05-.06-.12,0-.22-.11.02-.07.14-.04.22-.05.1-.27-.27-.34,0-.45-.09-.14-.15.22-.33.17,0-.22.23-.22.28-.39-.2-.46,0-1.15-.45-1.61.47-.21-.24-.67.11-.89-.05-.16-.14.08-.22-.05.21-.76-.49-1.29-.28-1.78-.06-.14-.22-.19-.28-.33-.11-1.2-.47-2.54-.95-3.51-.03-.48.11-1.34-.39-1.5.22-.23.06-.45-.17-.61.02-.13.12-.18.17-.28-.37-.63-.09-1.36-.56-1.89.05-.14.23-.15.17-.39-.49-.79-.43-2.43-.78-3.18.12.03.08-.11.16-.11-.32-.69-.04-1.48-.39-2.34.15.15.05-.08.17-.11-.02-.11-.02-.24-.17-.22.19-.38.1-.78-.06-.95.04-.1.1-.01.17,0-.4-1.12.04-3.15-.11-4.12.02-.13.15-.13.22-.06,0-.77.48-1.87.33-2.62.27-.2.62-.82.39-1.17.2-.08.14-.42.39-.45.2-.8.44-1.74.95-2.34-.05-.55.5-1.03.95-1.39.57.1,1.2.11,1.45.67.85-.27.48.82,1.12.89.09.58-.34.69-.17,1.17-.42.21-.33.83-.61,1.06.01.83-.24,1.82-.56,2.79.3,2.42-.49,4.24-1.17,5.96-.1,1.42-.43,2.76,0,4.46-.16,1.03.36,2.35.39,3.95.34.17.14,1,.17,1.22.02.21.23.35.28.56,0,.02-.11.51.11.73.25-.57.37-1.15.28-1.67.53-1.3,2.35-1.77,3.62-1.17.05-.06.2-.02.16-.17.19.28.67.37.89.78.3.55.1,1.2.56,1.78-.1.31-.37.82-.45,1.34-.19.1-.37.22-.56.33-.59-.17-1.43-.38-2.06-.61-.29.02-.7.05-1-.11-.29.18-.6.33-.84.56-.13-.05-.32-.05-.33-.22-.05.27-.01.83.28,1.11.08.85.28,1.62.61,2.34-.11.14.08.23-.05.33.59,1.19.14,2.63.89,3.9-.11-.11-.14,0-.28,0,.04.13.17.17.28.22-.15.27.24.55-.06.72.16.36.24.77.11,1,.29,1.99.05,4.26-.11,6.19-.03.59.09,1.24-.17,1.67.07.22-.02.27.11.45-.26,0,.06.08,0,.22-.18.71-.27,1.87-.17,2.67,0,.02.11.2.11.23-.01.16-.19.29-.22.44-.19,1.01.22,2.09.06,3.07-.34.7-.66,1.66-1.62,1.73-.87.06-1.41-.59-1.89-1.17.26-.03-.16-.15-.17-.39.1,0,.12.07.22.06-.46-.97-.45-2.03-.45-2.9.18-.05.17.09.28.11.04.17-.3.43,0,.5-.1-.2.32-.8,0-1.06.15-.04.11.11.22.11-.11-.11-.01-.15.05-.22-.02-.08-.14-.05-.22-.05.05-.1.13-.18.22-.22,0-.38-.12-1.46.11-2.12.27.17.11.49.11.78.31-.26.15-.82.45-1.11-.34-.82.22-1.46-.17-2.23.26-.17,0-.62.22-.73"/>
    <path class="cls-10" d="M280.55,21.91c-.95.45-2.04,1.04-2.23,2.06-.24.15-.37.41-.61.56-.83,0-1.52-.03-2.23-.56-1.08-.08-2.04-1.07-2.62-1.95-.14-.22-.42-.49-.5-.78-.04-.13.13-.44-.11-.56.06-.06.06-.19.06-.33.5-.66,1.58-.75,2.23-1.11.56-.47,1.29-.71,1.78-1.12.31-.05,1.19-.59,1.56-.72.51-.19,1.15-.54,1.51-.84.26.02.46-.03.5-.22.44.06.76-.46,1.23-.56.57-.07,1.18.16,1.73.11,0,.05.07.04.12.05.06.08.06.14,0,.22,1.04.09,2.16.68,2.51,1.78-.05.22-.05.7.11.72-.13.2.32.76-.11.89.09.04.08.18.22.17-.31.92-.46,1.85-1,2.73-.01.16.13.17.11.33-.18.06-.3.18-.28.44-.07.08-.26.04-.33.11.12.29-.15.35-.11.61-.1.04-.2.09-.33.11.02.13.2.1.17.28-.34.3-.62.54-.78.89.01.04.06.06.06.11,1.58-.43,3.64-.69,5.29-1.17-.03.17.81-.13,1.17-.17.55-.06,1.23-.16,1.9-.17.78,0,1.64.26,2.39.39.14.03.31-.03.45,0,.58.14.94.58,1.62.56.3.37.7.94.89,1.23.1.5-.36,1.23-.06,1.95-.1.56-.19,1.06-.61,1.39-.1-.05-.28-.02-.33-.11-.73.17-1.51-.57-2.28-.61-.96-.53-1.97-1.27-3.12-1.5-.33-.39-.81-.47-1.34-.56-.39-.07-.79-.25-1.22-.33-.2-.04-.43.04-.62,0-.21-.05-.34-.24-.56-.28-.34-.05-.73.08-1.06.06-.01-.09.05-.1.06-.17-1.91-.59-3.45.23-4.29,1.5-.16-.02-.17.13-.33.11-.1.23-.33.57-.61.78-.16.81-1.23,1.18-1.62,1.95-.13,0-.24.27-.34.11-.17.02-.09.28-.33.22,0,.47-.65.44-.45.95-.29.05-.76.38-1.06.61.43.48.7-.15,1.5.06.53.14,1.16.21,1.28-.33.66,0,1.18.39,1.78,0,1.03.1,2.4.06,3.57.17.04-.11.33.04.28-.17.37.06.79.28.89-.06.42.04.7-.32,1.12-.28.05-.07.07-.15.05-.28.49-.16,1.13-.65,1.73-.45.29-.15.64-.06,1-.05-.01.04-.06.05-.06.11.1-.02.14-.12.28-.11,0,.05-.07.04-.11.05.42.16.76.17,1.23.34.01.09-.05.09-.06.17.86.15,1.04.66,2.06.72.42.42,1.7.25,2.01.06.96.36,1.97-.43,2.79.17.1-.02.14-.12.28-.11.15.62.95.52,1.11,1.23h.23c-.13.24.18.35.22.56.05.2-.06.49-.05.84,0,.36.2.77.17,1-.04.26-.29.34-.22.67-.14.17-.58.06-.61.33-.48-.07-.87-.16-1.39,0-.49-.49-1.38-.01-1.9-.5-.81.34-2.18-.38-2.79.44.15.36-.52.5-.39.84-.37.32-.64.73-1.11.94-.33-.09-.72.2-.89.45-.09-.16-.26.11-.33-.06-.15.03-.21.16-.33.22-.29-.13-.83.07-.78.28-.07.02-.37.03-.22.28-.42.07-.36.75-.61,1.06.02.12.15-.08.23.06.02.15-.12.15-.23.17-.03.2.2.14.17.33-.28.02.04.1,0,.22-.44-.41-.38.43-.33.78-.4.56-.22,1.27-.28,1.95-.07.79-.02,1.54-.22,2.34.05.07.09.17.17.22-.23,1.31.14,2.55-.05,4.18.16.37.24.75.05,1.06.14.25.18,1.53.11,2.12.05.08.05.2.16.22-.02.63-.16,1.38.11,1.89-.09.63-.12,1.06.11,1.67-.1,0-.16.1,0,.22-.02.08-.05,0-.11,0,.09,1.08.08,1.63.17,2.5.05.5-.11,1.34.11,1.78-.26.52.2,1.16-.11,1.9.04.13.18.15.22.28-.28,2.6.24,6.1.06,8.19.23.68.14,1.25.28,2-.07.02-.09.1-.17.11.15.4.22,1.22.22,1.73,0,.27-.15.39-.05.61.07.17,0,.27,0,.67,0,1.08.14,2.59.22,3.68-.34.88.17,1.82-.28,2.73.12.24-.02.72.17.89-.2.62,0,1.15-.11,2.06-.11.02-.15.11-.22.17.06.45.12,1.05-.16,1.45.1.2.28.28.44.28-.47.17-.49,1.01-.83,1.12.06.14.22.18.22.39-.16-.15-.09.24-.33.17.21.18.11.67,0,.67.02.11.12.14.11.28-.28-.38-.09.44-.45.34-.04.19.11.23,0,.33-.06,0-.1.02-.11.05-.46-.06-.39-1.2-.84-.61.02.11.22.05.17.23-.13-.15-.25-.15-.39-.17-.04-.12-.12-.22-.11-.39-.05.04-.12.06-.22.06.08-.28-.3-.31-.5-.39-.18-.69-.47-1.05-.89-1.56.12-.91.89-2.69.56-3.74.27-.61.22-1.43.28-2.06.12.03.15-.04.22-.05-.07-.11-.16-.21-.28-.28.35-.58-.21-1.12.28-1.56-.36-.27.09-.57-.17-.95.46-.24.08-.93-.11-1.23.05-.04.13-.06.22-.06,0-.23-.27-.17-.22-.44.1,0,.12.07.22.06,0-.39.15-.64-.22-.78.14-.37-.06-.67-.05-1,0-.1.15-.14.17-.22,0,.03,0-.41,0-.39-.03-.23-.23-.38-.22-.66.21-.11.23-.43.28-.73-.28-.07-.04.31-.17.17-.24,0,.06-.27.11-.33-.1-.1-.27-.14-.33-.28.01-.15.09.07.22,0,.05-.27-.14-.31-.22-.45.1-.11.06-.34.28-.34-.08-.49-.28-.61-.28-1,.02-.11.15.08.17-.11-.23-.2-.2-.37-.28-.67.1-.1.16.03.28.06.02-.48-.25-.53-.28-1.06.12.03.15-.04.22-.05-.21-.16.04-.44-.22-.56-.02-.14.08-.18.22-.17.02-.22-.33-.09-.28-.33.35-.01.28-.34.17-.56-.09,0-.14.04-.17.11-.1-.08.07-.33.22-.33-.11-.67.27-1.23-.28-1.67-.05-.1.17-.19,0-.22.01-.07.14-.05.22-.05-.18-.26-.13-.67-.28-.84.06-.11.14-.2.22-.28.04-.24-.18-.23-.22-.39-.04-.21.21-.12.22-.28-.08-.6-.18-1.32-.17-1.78.03-.9.26-1.56-.17-2.17-.1-.07.13-.28.17-.39-.25-.35-.13-.61-.23-1.11-.04.16-.39.27-.33-.06.17-.04.11-.04.28,0,.06-.17.09-.39.22-.5-.16-.82.23-1.65-.33-2.34.09-.02.1.05.16.05.27-.46-.05-.87-.11-1.28-.08-.49.06-.96-.22-1.28-.07-.21-.5-.06-.5-.33.29-.03.5-.13.67-.28-.07-.12-.16-.22-.23-.33.14-.68-.11-1.58-.05-2.28-.21-.04-.04.3-.28.22-.14-.22.21-.36.33-.5-.21-.24-.28-.34-.22-.78-.46-.29-.2-.75-.17-1.11.17-.03.14.15.27.17.04-.09-.11-.48-.27-.56-.07-.14.26-.14,0-.17,0-.26.08.06.22,0,.13-.06-.05-.46.05-.61-.12,0-.12.14-.11.28-.07-.05-.15-.07-.28-.05.15-.12,0-.24,0-.5.1.02.11-.05.12-.11.11.02.11.15.22.16.16-.68-.42-.14-.28-.61.1,0,.12.07.23.06-.07-.29-.04-.69-.23-.73-.18-.47.37-1.17.23-1.78-.15-.14-.39.11-.39-.22.17.18.19-.09.39-.06,0-.09-.03-.21.05-.22-.01-.19-.36-.05-.34-.28.23.08-.09-.49,0-.67.23-.02.32.09.28.34.17-.18.18-.49-.05-.67.02-.18.16-.25.22-.39-.09-.15-.19-.29-.33-.39.12-.13,0-.59.33-.67-.09-.16-.15-.05-.33-.06-.08-.34.24-.28.17-.61.13.03.12-.1.28-.05-.22-.66.1-1.21.06-1.84.23.13-.04-.11-.06-.22.14-1.11.36-2.23.28-3.45-.11-.13-.22-.25-.39-.17,0-.1.07-.12.05-.22-.17.17-.55-.12-.72.22-.89-.17-1.64-.38-2.45-.11-.12.03-.11-.08-.11-.17-.4.29-1.41-.16-1.73.39-.4.03-.98.16-1.12-.11-.54.2-2.21-.24-2.95.11-.06-.05,0-.12-.11-.22-1.12.31-2.57.3-3.95.5-.17.02-.73.1-1,.17-.17.04-.3.23-.5.28-.45.11-1.02,0-1.45.06-.3.03-.57.25-.89.22-.54.45-1.4.6-1.51,1.34-.39.04-1.2.1-1.45-.06.09-.17.1-.42.28-.5-.06-.09-.18-.12-.17-.28-.08,0-.16.01-.17-.06-.37.17-.69.14-1,.22-.26.41-.65.68-1.12.89-.58-.03-.97-.53-1.67-.28-.59.21-1.19.97-1.56,1.45-.13.16-.28.17-.34.28-.22.39-.35,1.29-.28,1.5-.07.09-.07.23-.17.28.1.32.45.41.61.66h.39c2.02.82,4.62.09,6.57.39.41-.3,1.07-.1,1.67-.17.86-.1,1.72-.44,2.34-.33.09.26.61.07.56-.17.4-.01.86.04,1.06-.17.07.12.01.12.11.28.33-.09.93-.1,1.62-.11.08-.07.08-.21.17-.28.44.02,1.16.26,1.73-.11.35.22.56-.21.78-.28.15-.05.6,0,.84-.06.62-.15.78.46,1.45.61.04.15-.11.11-.11.22.09.15.24.33.39.56.08,1.19.71,2.69.22,3.73.12.09.2.21.17.45-.51.43-1.21.06-1.67.45-.12.02-.11-.08-.12-.17-.43.52-1.56.13-1.95.84-.12,0-.03-.2-.06-.28-.2,0-.16.07-.33,0-.04.17.09.17.06.34-.27-.02-.33.28-.5.06-.01-.25.27-.21.28-.45-.12-.13-.48-.04-.61,0-.09.08-.06.28-.17.34-.08,0-.17-.23-.22-.06-.08-.03,0-.05,0-.11-.08-.13-.18.19-.28.22-.3-.14-.88.03-.95.28-.7-.34-.92.4-1.56.06-.17.02-.07.3-.22.33-.09-.08-.09-.25-.17-.33-.03.07-.03.14-.11.28-.52-.32-.85.19-1.28.28-.02-.11.01-.18.11-.17-.77-.08-1.21.06-1.84.34.04-.2-.26-.08-.28-.22-.22.2-.42.09-.66.28-.03-.11.03-.15.05-.22-.24-.05-.42.34-.5.11-.05.04.02.3-.22.28.1-.41-.47.04-.67-.22-.11.1-.21.2-.28.33.01.14.1-.07.23,0,0,.08-.01.16.06.17-.42-.07-.53-.44-1.06-.22-.14.05-.26.18-.33.28-.22-.03.02-.19-.17-.28-.12.12-.18-.05-.28.05.04.13.29.04.22.28-.71.05-.53-.11-1,.28-.03-.11.15-.19.05-.5h-.17c-.15.05.17.13,0,.22-.13,0-.17-.1-.34-.06-.2.07-.02.18-.11.33-.07-.01-.1.01-.11.06-.35-.03-.18-.37-.33-.5-.2-.03-.14.2-.33.17,0-.11-.15-.07-.11-.22-.32.19-.55.13-.89.34.01-.18-.22-.12-.22-.28-.1.12-.2.1-.11.28h-.34c.2-.56-.5-.22-.84-.22-.35,0-.56-.27-.67-.11-.06-.2.25-.05.22-.22-.18.15-.37-.05-.45.17-.64-.07-1.25-.63-1.89-.67-.16-.27-.61-.47-.89-.44-.79-.49-1.81-1.23-1.89-2.06-.45-.25-.09-1.15-.34-1.5.1-.67.16-1.41.28-2.06.32-.26.42-.61.5-1.06.53-.36.63-.84.89-1.39.3-.13.55-.3.67-.61.68-.09,1.06-.61,1.67-.61,1.3-.76,2.81-1.22,3.96-2.23.03-.5-.06-.95-.34-1.28.03-.08.05,0,.11,0-.06-.2-.06-.47-.28-.5.05-.63-.5-1.06-.39-1.79-.07-.14-.19-.21-.34-.27-.62.55-1.22.63-1.62,1.33-.55.07-.59.64-1.11.73-.95,1.34-2.25,2.41-3.51,3.29-.24.17-.28.54-.56.67.15.39-.07.97-.33,1.12.08.8-.07,1.24-.22,1.89.12.08.17.14.33.11,0,.16-.17.13-.17.28.22.45.14,1.44-.05,1.95.14.05.12.25.11.45-.19-.02-.09.24-.33.17-.16.07.17.12.11.28h-.17c-.06.32.16.36.28.5-.11.1-.09.32-.33.28.21.86-.51,1.33-.45,2.06.17.04.11-.15.28-.11-.04.19.1.23,0,.34-.18.1-.4-.01-.62.05.01.12.25.01.28.11-.1.47-.15.98-.39,1.39.05.18.05.4.34.33-.18.25-.37.15-.39.5.05-.03.09-.06.17-.05-.11.11-.16.28-.33.33.1.16.18.34.22.55-.13.03-.2.13-.28.22.16-.05.06.27-.11.33.48.59-.54,1.16-.39,1.78-.34.19-.26.48-.56.73-.28.09-.71-.09-.95,0,0-.13-.19-.03-.34-.22-.05.05-.11.11-.17.17-.14,0-.19-.1-.28-.17-.04.09-.27-.01-.23.17-.16-.24-.63-.23-.78.06-.52-.09-.9.03-1.34.11-.49-.22-.86-.56-1.17-.95,0-.65-.27-1.32-.11-2.01.02-.11.17-.56.17-.83-.01-.45-.18-.64-.05-1.06.06-.2.31-.36.22-.72.22-.04.24-.28.22-.56.29-.54.73-.99.78-1.9.32-.09.16-.65.56-.67,0-.91.45-1.82.39-2.79.14-.24.35-.41.22-.67.02-.08.05,0,.11,0-.26-.46.24-.75-.11-1.11.22-.1,0-.64.22-.72-.19-.14.01-.59-.11-.84h.11c-.36-.77-.54-1.9-.67-2.79-.22-.2-.16-.09-.28-.39-.82.44-1.66,1.25-2.12,2-.78.28-1.11,1.01-2.18,1.01-.2-.19-.39-.38-.72-.44-.06-.53-.3-.89-.34-1.45-.56-.79-.85-2.23-.05-2.96,1.26-.62,2.29-1.88,2.95-3.29,1.08-1.19,1.73-2.8,2.51-4.29-.08-.19-.25-.27-.39-.39-.04.05-.15.03-.17.11.02-.21-.43-.03-.5-.22-.18.1-.16.06-.39.11-.68-.4-1.42-.39-1.9-1.12-.62-.05-.87-.51-1.39-.78.08-.34-.32-.37-.5-.56-.09-.1-.11-.33-.22-.44-.28-.31-.91-.72-1.17-1.06-.14-.18-.16-.48-.28-.67-.33-.54-1.4-1.24-.89-2.17.47-.1,1.11-.57,1.51-.34.53-.44,1.08-.48,1.67-.78.47.3.83.01,1.01-.06.32-.13.59-.05.89-.34.46.16.97-.14,1.34.17.31-.14.6-.19.95-.06.45-.03.83-.17,1.17-.11,1.13-.03,1.81-.58,3.12-.61.07,0,.05-.1.06-.17.7.08,1.33-.5,2.01-.17.33-.03.39,0,.61-.17.66.68,2.6.29,2.51,1.67.1.1.15.26.28.33-.15.21-.09.44.11.56-.28.19,0,.82-.22.78.09.62-.44.81-.39,1.39-.12-.02-.15.04-.22.06,0,.1.07.12.05.22-.15,0-.29.3-.17.39-.2.47-.61.73-1,1.01.04.32-.29.65-.67.73-.1,0-.13.09-.11.22-.29.03-.51.38-.72.5-.18.1-.37.2-.56.17,0,.19-.06.49-.33.33-.1.15.04.21-.11.33-.81.27-.98,1.2-1.78,1.56.13.68-.58.94-.5,1.5-.42.29-.6.81-.89,1.23-.4-.11-.42.59-.17.39-.02.11-.16.1-.11.28,1.23.46,2.54.93,3.01,2.28.6.13,1.24-.26,1.62-.67.49-.07.72-.21.84-.56.65-.04,1.44-.71,1.78-1.06.7-.13,1.38-1.02,2.01-1.22.11-.52.81-.64.95-1.28.12.02.15-.04.22-.06.22-.5.19-.98.28-1.39-.94-1-.05-2.49.73-3.17.08-.74.59-1.04.84-1.62.33-.08.74-.46,1.22-.56.68-.14,1.59-.07,2.28.34.81.1,1.33.51,1.73.89.92.86.37,2.81.06,4.24.13.36.22,1.18,0,1.22.2.83-.09,1.12-.11,2.18-.07.35-.06.93-.11,1.45-.04.41.1.72,0,1.17-.02.11-.14.18-.17.28-.13.51.26.67.33,1.22.04.3-.29.77-.11,1.06.13-.24.26-.48.33-.78,1.95-1.63,5.25-1.93,7.63-2.45.15-.04.11.11.22.11.09-.18.35-.21.33-.5.17.07.22.04.34-.06-.02-.57.48-.9.22-1.39.44-.12.29-.82.73-.95-.04-.95,1.23-1.31,1.5-1.95.33.06.33-.22.45-.39.28.04.51-.41.78-.39.01-.05-.02-.05-.05-.06.11,0,.34-.12.28-.44.52-.37.69-1.1,1.28-1.39.06-.2.17-.35.33-.45.23-1.01.72-1.77,1.06-2.67"/>
    <path class="cls-10" d="M142.15,49.47c0,.13.1.16.05.33-.24-.02-.14.31-.39.28-.07.86-.59,1.51-.83,2.45.77.2.98-.56,1.62-.67.15-.54.5-1,.89-1.45.02-.76-.34-1.14-.95-1.39-.13.15-.18.37-.39.45M146.72,48.97c-.22-.01.09-.3-.17-.33-.15.1.05.51.17.33M146.61,48.52c.03-.18-.25-.34-.28-.28.13.06.09.28.28.28M144.49,37.83c.24.02.38-.37.11-.39-.08.2.03.25-.11.39M144.6,37.38c.01-.07.06-.04.11,0,.09-.19-.14-.5-.06-.34.01.11-.25.23-.05.34M145.16,53.03c.23-.24.21-.8.72-.89.01.98-1.46.94-1.28,1.73-1.09.68-2.15.65-3.84.61-.4.23-.68.19-1,.56-.2-.08-.33-.29-.22-.5-.39-.01-.82-.28-1.23-.28-.11-.21-.4-.39-.28-.67-.05-.13-.19-.18-.39-.17-.1-.55-.35-.94-.78-1.17-.25-.68-.25-1.84.11-2.45.16-.27.52-.43.72-.72.06-.1.05-.28.11-.39.08-.14.27-.21.34-.33.12-.22.14-.54.28-.78.09-.14.37-.16.22-.39.57-.28.55-1.16,1.06-1.5-.19-.05.04-.18-.11-.28.16-.25.39-.42.45-.78.38-.04.29-.43.45-.67.14-.22.52-.4.67-.67.03-.05-.04-.17,0-.22.28-.39.62-.69.84-1.06.03-.05-.05-.12-.06-.11.18-.3.29-.57.44-.78.06-.08.18-.04.23-.11.47-.83.78-1.74,1.28-2.56.2-1.02.36-1.54-.11-2.45-.37-.5-1.04-.71-1.45-1.17-.35-.02-.57-.17-.78-.33-.14.03-.29-.05-.45,0-.29.08-.14.28-.33.5-.51.56-1.29.37-2.01.45-.78-.22-1.53-.44-2.12-1.06-.02-.12.04-.15.06-.23-.76-.2-.78-1.15-1.28-1.62.23-.74-.13-1.26.11-2.01.07-.22.45-.86.73-1.17.23-.26.59-.42.78-.67.07-.08.05-.27.11-.33.32-.33.89-.59,1.22-.78.41.19,1.06.03,1.34-.33.13-.03.08.1.17.11.22-.19.35-.47.5-.72.27.25-.25.72-.39,1.06.13.16.31.29.11.5,0,.14.21.09.28.17-.07.09-.15.19-.11.39.11.07.13.24.22.33-.15.34.21.77.05,1.11.45.95,1.28,1.43,1.78,2.12.33.46.71.97,1.28,1.28v.16c1.02.94,2.47,2.19,2.45,4.35-.1.06-.12.22-.22.28-.19,1.93-1.2,3.93-2.12,5.74-.01.55.09,1.07-.22,1.51.12.33-.13.67.17.89.04.15-.11.11-.11.22.1-.01.11.05.05.06,1.01.32,1.82.64,2.62,1.28.03-.48-.7-.42-.56-.84.92.34,1.52,1.36,1.12,2.39-.16-.05-.14.08-.28.05-.21,1.1-.58,1.83-1.06,2.68-.11.19-.35.37-.28.67"/>
    <path class="cls-10" d="M219.87,49.44c.11.25-.13.11-.22.22-.26.34.02.95-.5,1.11.12.2.12.3,0,.5.06.01.09.06.11.11.84-.25,1.58-.37,2.17-.84-.21-.26-.19-.57-.5-.61.19-.14-.01-.24-.05-.44-.33.28-.57-.28-1-.06M203.43,41.81c.04.24.26.3.39.45.87.11,2.25-.04,3.12-.61.12-.02.15.04.22.05.09-.07.22-.11.22-.28.83-.44,1.34-.86,1.95-1.5.96-.58,1.43-1.65,2.34-2.29.45-.66,1.09-1.14,1.39-1.95.39-.11.42-.59.78-.72.36-.89,1-1.58,1.17-2.51-.03-.12-.12-.18-.17-.28.4-.51.29-1.53.56-2.17h.17c.38-.85,1.09-1.84,1.84-2.51,2.14-.62,4.3,2.64,2.28,3.9-.11.51-.22.67-.61.89.02.14-.05.63.06.5.02.56.25,1.2.78,1.56.34.02.42-.02.61.16.39-.03.61.12.89.06.27.17,1.74,0,2.56.22.08-.06.21-.05.28-.11.64.12,1.4,0,2.28,0,1.56,0,3.47.3,4.91-.05.75-.19,1.41-.65,2.01-.12.93-.15,1.57,1.04,2.28,1.62-.08.17.03.24,0,.5-.1-.02-.12.05-.06.05-.54.03-.93.24-1.34.51-.78.5-1.64.85-2.51,1.39-.26-.03-.74.18-.89.44-1.28.41-2.64,1.52-3.68,2.18-.63.5-1.23,1.03-1.9,1.5-1.67,1.49-3.21,3-4.46,4.79.02.07.1.09.11.17.18.05.12-.14.22-.17.32.12.35.24.78.28-.06.08-.06.14,0,.22.24.07.25.02.45-.06-.26.32.2-.02.28.28.15,0,.12-.17.28-.17.03.12-.1.08-.11.17.26.1.51.18.78.39.13-.16.2-.05.45-.06-.01.3.27.76.67.84.03.36-.23.88.05,1.12-.26.39-.39.81-.84,1.11-.11-.02-.11-.15-.22-.17-1.05.71-2.21,1.37-3.01,1.56-.08-.3.38-.22.56-.39-.28-.06-.58.11-.73.45-.25-.04-.33-.18-.5-.16-.01.01-.08.23,0,.28-.42.34-.87-.02-1.23.39.1.16.15.05.33.06-.05.28-.61.3-.61.05-.57.4-1.08-.32-1-.78-.45-.35-1.06-.61-1.17-1.23-.03-.2.02-1.1.06-1.22.04-.13.42-.81.56-1.01.28-.4.71-.74.89-1.05-.07-.2,0-.21-.05-.39.38-.3.61-.76,1.06-1,.38-1.12,1.07-1.63,1.62-2.56.24,0,.16-.18.33,0,0-.08,0-.16.06-.17-.02-.08-.07.02-.17,0,.08-.27.26-.44.5-.56.03.2-.17.16-.17.34.29-.1.32-.43.34-.67.11-.02.17.01.17.11.61-.41.91-1.13,1.62-1.45.14-.2.36-.38.17-.61.71.12.94-.75,1.61-1,.48-.77,1.5-.99,2.01-1.73.32.06.61-.35.84-.56,1.04-.59,2.05-1.06,2.95-1.84-.19.1-.29.16-.45.17-.17-.16.17-.27.22-.39-.9.06-1.81-.03-2.62-.11-.13-.02-.38.14-.56.11-.21-.04-.47.03-.78.06-.53.04-1.13-.2-1.56.05-.27-.11-.69-.12-.89,0-.73-.27-1.23.04-1.73-.05-.08.02.02.07,0,.17-.15.04-.11-.12-.17-.17-.25.17-.53.4-.83.11-.55.38-1.63-.29-1.84,0-.22.11-.48-.11-.67.17-1.07-.24-1.46-1.47-2.45-1.9-.64.54-1.24,1.4-1.56,2.06-.65,1.01-2.08,2.43-2.78,3.57-.26-.12-.41.28-.39.61-.6.6-1.28,1.14-1.67,1.95-.17.06-.17-.09-.39.06-.06.18,0,.12,0,.34-.15-.04-.53.02-.56.39-.45-.01-.5-.03-.67.33-.08-.02,0-.05,0-.11-.74.42-1.3.91-2.12,1.11.02-.09-.05-.1-.06-.17-.05.09-.23.18-.11,0-1.1.69-2.66.27-3.68.28-.77.72-1.19-.61-1.73-.33-.34-.43-.16-1.17-.45-1.62-.04-.06-.13-.02-.11,0-.14-.13-.26-.49-.28-.61-.11-.82.48-1.8.78-2.56h.17c.31-1.02,1.11-1.67,1.34-2.62.33-.07.32-.7.67-.84.05-.16-.08-.14-.06-.28.27-.06.23-.44.45-.56.05-.11-.17-.19,0-.23-.65-.54-1.06-1.31-1.45-2.12.34-.59-.41-1.25,0-2.12.27.22.32.44.5.67,1.3.39,2.05.33,3.4,0,.4.23,1.34.4,1.22.78.49.41.61.84,1,1.34-.31-.03.2.2-.11.17.26.39.33.64.67.95-.15.07-.01.33-.17.5.02.17.15.22.28.28-.15.47-.9.33-.89.94-.36.16-.64.14-.95.39-.23-.06-.25-.01-.5,0-.11.45-.52.25-.56.78-.06.01-.1,0-.11-.05-.56.78-1.28,1.66-1.45,2.51-.49.25-.36.87-.67,1.23.17-.18-.04.44-.11.27"/>
    <path class="cls-10" d="M176.9,40.25v.44c-.24.34-.15,1-.5,1.23.13.29.2.68.56.95.1.01.12-.07.22-.06.32.32.79.51,1.34.5.9-.02,1.41-.74,1.73-1.5.09-.88.68-2.95.39-3.57-1.16.75-2.68,1.05-3.73,2M179.74,31.9c-.21,0-.21.2-.39.23-.01-.31.18-.56.11-.84-.08-.08-.34.07-.33-.22.5-.2.71-.56,1.34-.45,1.4.24,1.76,2.53,2.34,3.45.04.97.4,2.33.28,3.51-.03.33-.22.94-.06,1.39.01.14-.08.18-.17.22.23.29.03.42,0,.67.02.08.07-.02.17,0-.05.16-.05.17,0,.34-.09.02-.1-.04-.11-.11.02.14-.17.37-.06.56.12-.05-.11-.34.17-.33.02.09-.04.11-.11.11.13.18.04.22.11.45-.1.11-.17.05-.22.11.05.14.17.21.11.45-.09.01-.1-.05-.17-.06.21.39.15,1.13-.11,1.45.07.02.24-.01.17.28-.15.04-.11-.11-.22-.11.17.28.16.7-.05.89-.19-.09.16-.41-.11-.45-.05.45-.39.61-.39,1.12-.42.08-.63.37-.56.67-.45.33-.7.86-1.34,1-.5-.09-1.21.29-1.67-.11-2.36-.18-4.08-1-5.57-2.06-.33-.69-.85-1.19-.94-2.12-.13-.13-.13-.39-.28-.5.07-.81-.4-1.44-.17-1.95-.33-.61-.25-1.56-.22-2.23.03-.63-.24-1.41-.23-2.12.03-1.26-.09-2.83.17-4.01.06-.26.24-.45.11-.78.14-.16.27-.23.17-.5.36-.45.55-1.42,1.17-1.79,0-.13.1-.16.06-.33,1.38-.68,2.58.6,2.79,1.84-.16.76-.49,1.56-.89,2.06-.26,1.95-.28,5.14-.11,7.24.71-.2,1.67-1.26,2.45-1.06.02-.18.38-.03.39-.22,0-.15-.15.13-.11-.11.09,0,.14.04.17.11.18-.22.63-.05.72-.39.98-.24,2.52-.38,2.84-1.45.08-1.25.02-2.61-.72-3.62-.23-.02-.3-.19-.51-.23"/>
    <path class="cls-10" d="M189.27,53.52c.14.06.27.36,0,.39-.16-.52-.06-1.13-.11-1.95.36.1.05.71.17.95.07-.26.17.52-.06.61"/>
    <path class="cls-10" d="M189.77,55.3c-.18-.05-.09-.37-.17-.28-.14-.02.06-.15.06-.22.24.15.09.28.11.5"/>
    <path class="cls-10" d="M285.23,72.89c-.02-.07-.07-.11-.17-.11.05-.19.13-.05.22,0,.05.1-.17.18,0,.22-.03.14-.28.03-.22-.11h.17Z"/>
  </g>
</svg>