<?xml version="1.0" encoding="utf-8"?>
<!-- Generator: Adobe Illustrator 25.2.1, SVG Export Plug-In . SVG Version: 6.00 Build 0)  -->
<svg version="1.1" id="Layer_1" xmlns="http://www.w3.org/2000/svg" xmlns:xlink="http://www.w3.org/1999/xlink" x="0px" y="0px"
	 viewBox="0 0 165 150" style="enable-background:new 0 0 165 150;" xml:space="preserve">
<style type="text/css">
	.st0{fill:url(#SVGID_1_);}
	.st1{fill:url(#SVGID_2_);}
	.st2{fill:url(#SVGID_3_);}
	.st3{fill:none;stroke:url(#SVGID_4_);stroke-width:6.4199;stroke-linecap:round;stroke-linejoin:round;}
	.st4{fill:none;stroke:url(#SVGID_5_);stroke-width:6.4199;stroke-linecap:round;stroke-linejoin:round;}
	.st5{fill:none;stroke:url(#SVGID_6_);stroke-width:6.4199;stroke-linecap:round;stroke-linejoin:round;}
	.st6{fill:none;stroke:url(#SVGID_7_);stroke-width:6.4199;stroke-linecap:round;stroke-linejoin:round;}
	.st7{fill:none;stroke:url(#SVGID_8_);stroke-width:6.4199;stroke-linecap:round;stroke-linejoin:round;}
	.st8{fill:none;stroke:url(#SVGID_9_);stroke-width:6.4199;stroke-linecap:round;stroke-linejoin:round;}
</style>
<g>
	
		<linearGradient id="SVGID_1_" gradientUnits="userSpaceOnUse" x1="88.5771" y1="103.2579" x2="29.7716" y2="103.2579" gradientTransform="matrix(-1 0 0 1 169 0)">
		<stop  offset="0" style="stop-color:#6E7CBC"/>
		<stop  offset="1" style="stop-color:#D1D8ED"/>
	</linearGradient>
	<path class="st0" d="M83.5,71.1c-3.5,2.9-4.1,8.1-1.2,11.7l42.2,51.5c2.9,3.5,8.1,4.1,11.7,1.2l0,0c3.5-2.9,4.1-8.1,1.2-11.7
		L95.1,72.2C92.2,68.7,87,68.2,83.5,71.1L83.5,71.1z"/>
	<g>
		
			<linearGradient id="SVGID_2_" gradientUnits="userSpaceOnUse" x1="143.3406" y1="15.6802" x2="115.1299" y2="15.6802" gradientTransform="matrix(-0.9826 5.145817e-02 -5.145817e-02 0.8475 168.5898 -1.2154)">
			<stop  offset="0" style="stop-color:#6E7CBC"/>
			<stop  offset="1" style="stop-color:#D1D8ED"/>
		</linearGradient>
		<path class="st1" d="M27.7,23.1c2.4,7.2,10.3,11.1,17.5,8.6c7.2-2.4,11.1-10.2,8.7-17.5C51.4,7.1,43.6,3.2,36.4,5.7
			C29.2,8.1,25.3,15.9,27.7,23.1z"/>
		
			<linearGradient id="SVGID_3_" gradientUnits="userSpaceOnUse" x1="168.8994" y1="84.7096" x2="44.3737" y2="84.7096" gradientTransform="matrix(-1 0 0 1 169 0)">
			<stop  offset="0" style="stop-color:#6E7CBC"/>
			<stop  offset="1" style="stop-color:#D1D8ED"/>
		</linearGradient>
		<path class="st2" d="M8.8,66.7l25.3,3.5c0.7-2.6,1.5-5.7,2.4-8.8c1-3.9,2.1-7.7,2.9-10.7c0.4-1.5,0.7-2.7,1-3.6
			c0.1-0.4,4.9-13.5,18.5-19.2c0.9-0.7,11.8-4.9,20.4-3.2l39.4,7.5c4,0.8,6.6,4.6,5.9,8.6c-0.8,4-4.5,6-8.5,5.3l-33.4-5.3l-11.4,0.2
			l26.2,30.2c0,0,6.9,7.6-0.8,19.8c-7.7,12.1-39.7,18.4-39.7,18.4l22.7,21.7c0,0,7.1,5.6,1.3,12.1c-5.1,4.8-11.3-1.4-14.8-4
			c-3.5-2.7-29.2-26.4-29.2-26.4s-6.7-5.9,0.9-11c7.6-5.2,28.2-17.6,28.2-17.6L51.9,63c-2.3,8.5-4.8,17.8-4.8,17.8
			c-1,3.7-4.6,6.1-8.5,5.6l-32-4.5c-0.1,0-0.3,0-0.4-0.1c-4-0.8-6.7-4.5-6.1-8.6C0.8,69,4.6,66.1,8.8,66.7z"/>
	</g>
	<g>
		
			<linearGradient id="SVGID_4_" gradientUnits="userSpaceOnUse" x1="75.4698" y1="57.8795" x2="48.7125" y2="57.8795" gradientTransform="matrix(-1 0 0 1 169 0)">
			<stop  offset="0" style="stop-color:#FBAD18"/>
			<stop  offset="1" style="stop-color:#EBE723"/>
		</linearGradient>
		<line class="st3" x1="96.7" y1="57.9" x2="117.1" y2="57.9"/>
		
			<linearGradient id="SVGID_5_" gradientUnits="userSpaceOnUse" x1="45.2855" y1="57.8795" x2="33.4667" y2="57.8795" gradientTransform="matrix(-1 0 0 1 169 0)">
			<stop  offset="0" style="stop-color:#FBAD18"/>
			<stop  offset="1" style="stop-color:#EBE723"/>
		</linearGradient>
		<line class="st4" x1="126.9" y1="57.9" x2="132.3" y2="57.9"/>
	</g>
	<g>
		
			<linearGradient id="SVGID_6_" gradientUnits="userSpaceOnUse" x1="61.5216" y1="71.0848" x2="23.9238" y2="71.0848" gradientTransform="matrix(-1 0 0 1 169 0)">
			<stop  offset="0" style="stop-color:#FBAD18"/>
			<stop  offset="1" style="stop-color:#EBE723"/>
		</linearGradient>
		<line class="st5" x1="110.7" y1="71.1" x2="141.9" y2="71.1"/>
		
			<linearGradient id="SVGID_7_" gradientUnits="userSpaceOnUse" x1="20.4961" y1="71.0848" x2="8.68" y2="71.0848" gradientTransform="matrix(-1 0 0 1 169 0)">
			<stop  offset="0" style="stop-color:#FBAD18"/>
			<stop  offset="1" style="stop-color:#EBE723"/>
		</linearGradient>
		<line class="st6" x1="151.7" y1="71.1" x2="157.1" y2="71.1"/>
	</g>
	<g>
		
			<linearGradient id="SVGID_8_" gradientUnits="userSpaceOnUse" x1="47.7324" y1="84.2913" x2="19.1365" y2="84.2913" gradientTransform="matrix(-1 0 0 1 169 0)">
			<stop  offset="0" style="stop-color:#FBAD18"/>
			<stop  offset="1" style="stop-color:#EBE723"/>
		</linearGradient>
		<line class="st7" x1="124.5" y1="84.3" x2="146.7" y2="84.3"/>
		
			<linearGradient id="SVGID_9_" gradientUnits="userSpaceOnUse" x1="15.7081" y1="84.2913" x2="3.8907" y2="84.2913" gradientTransform="matrix(-1 0 0 1 169 0)">
			<stop  offset="0" style="stop-color:#FBAD18"/>
			<stop  offset="1" style="stop-color:#EBE723"/>
		</linearGradient>
		<line class="st8" x1="156.5" y1="84.3" x2="161.9" y2="84.3"/>
	</g>
</g>
</svg>
