<svg xmlns="http://www.w3.org/2000/svg" viewBox="0 0 15 15"><defs><style>.cls-1{fill:#212121;}</style></defs><g id="레이어_2" data-name="레이어 2"><g id="레이어_1-2" data-name="레이어 1"><path class="cls-1" d="M6.89,3.54a.63.63,0,0,1,.63-.62h3.94a.62.62,0,0,1,.62.62V7.48a.63.63,0,1,1-1.25,0V5.05L6.48,9.4a.62.62,0,1,1-.88-.88L10,4.17H7.52A.63.63,0,0,1,6.89,3.54Z"/><path class="cls-1" d="M2.63,1.88A2.71,2.71,0,0,1,5.21,0h7.08A2.71,2.71,0,0,1,15,2.71V9.87a2.72,2.72,0,0,1-1.67,2.5v.11a2.25,2.25,0,0,1-1.09,1.95A4.18,4.18,0,0,1,10,15H3.33a3.42,3.42,0,0,1-2.4-.88A3,3,0,0,1,0,11.87V4.58A2.92,2.92,0,0,1,.61,2.67a2.33,2.33,0,0,1,1.85-.79ZM2.5,3.12h0a1.06,1.06,0,0,0-.89.36,1.62,1.62,0,0,0-.32,1.1v7.29a1.77,1.77,0,0,0,.53,1.34,2.19,2.19,0,0,0,1.55.54H10a3,3,0,0,0,1.57-.37,1,1,0,0,0,.51-.81H5.21A2.7,2.7,0,0,1,2.5,9.87ZM5.21,1.25A1.46,1.46,0,0,0,3.75,2.71V9.87a1.45,1.45,0,0,0,1.46,1.45h7.08a1.45,1.45,0,0,0,1.46-1.45V2.71a1.46,1.46,0,0,0-1.46-1.46Z"/></g></g></svg>