<svg xmlns="http://www.w3.org/2000/svg" viewBox="0 0 25 21"><defs><style>.cls-1{fill:#fff;}.cls-2{fill:none;}</style></defs><g id="레이어_2" data-name="레이어 2"><g id="레이어_1-2" data-name="레이어 1"><path class="cls-1" d="M19.74,7.8V5a3.93,3.93,0,0,0-3.93-3.93H3.93A3.93,3.93,0,0,0,0,5V16a3.93,3.93,0,0,0,3.93,3.92H15.81A3.93,3.93,0,0,0,19.74,16V14.12H25ZM18,12.36V16a2.17,2.17,0,0,1-2.17,2.16H3.93A2.17,2.17,0,0,1,1.76,16V5A2.17,2.17,0,0,1,3.93,2.85H15.81A2.17,2.17,0,0,1,18,5V8.44l3.27,3.92ZM13.43,11h1.76V9.11H13.43Zm-4.1,0h1.76V9.11H9.33Zm-4.1,0H7V9.11H5.23Z"/><rect class="cls-2" width="25" height="21"/></g></g></svg>