<?xml version="1.0" encoding="utf-8"?>
<!-- Generator: Adobe Illustrator 25.2.1, SVG Export Plug-In . SVG Version: 6.00 Build 0)  -->
<svg version="1.1" id="Layer_1" xmlns="http://www.w3.org/2000/svg" xmlns:xlink="http://www.w3.org/1999/xlink" x="0px" y="0px"
	 viewBox="0 0 44 40" style="enable-background:new 0 0 44 40;" xml:space="preserve">
<style type="text/css">
	.st0{fill:none;}
	.st1{fill:#003E6B;}
</style>
<g>
	<path class="st0" d="M17.6,23.2c-0.2-0.4-0.1-0.9,0.2-1.2l6.6-6.6l1.5,1.5l-4.8,4.8h9.9V8.1H9.3v29c0,0.4,0.4,0.8,0.8,0.8h20.2
		c0.4,0,0.8-0.4,0.8-0.8V23.8H18.6C18.2,23.8,17.8,23.5,17.6,23.2z"/>
	<path class="st0" d="M31.1,2.9c0-0.4-0.4-0.8-0.8-0.8H10.1c-0.4,0-0.8,0.4-0.8,0.8v3h21.8V2.9z"/>
	<path class="st1" d="M36.8,21.7h-3.6V7V2.9c0-1.6-1.3-2.9-2.9-2.9H10.1C8.5,0,7.2,1.3,7.2,2.9V7v30c0,1.6,1.3,2.9,2.9,2.9h20.2
		c1.6,0,2.9-1.3,2.9-2.9V23.8h3.6V21.7z M9.3,2.9c0-0.4,0.4-0.8,0.8-0.8h20.2c0.4,0,0.8,0.4,0.8,0.8v3H9.3V2.9z M31.1,37.1
		c0,0.4-0.4,0.8-0.8,0.8H10.1c-0.4,0-0.8-0.4-0.8-0.8v-29h21.8v13.6h-9.9l4.8-4.8l-1.5-1.5L17.8,22c-0.3,0.3-0.4,0.8-0.2,1.2
		c0.2,0.4,0.6,0.7,1,0.7h12.5V37.1z"/>
</g>
</svg>
