<?xml version="1.0" encoding="utf-8"?>
<!-- Generator: Adobe Illustrator 25.2.1, SVG Export Plug-In . SVG Version: 6.00 Build 0)  -->
<svg version="1.1" id="Layer_1" xmlns="http://www.w3.org/2000/svg" xmlns:xlink="http://www.w3.org/1999/xlink" x="0px" y="0px"
	 viewBox="0 0 44 40" style="enable-background:new 0 0 44 40;" xml:space="preserve">
<style type="text/css">
	.st0{fill:none;}
	.st1{fill:#003E6B;}
</style>
<g>
	<path class="st0" d="M38.6,34.8c0.8,0,1.4-0.6,1.4-1.4v-1.9c-0.5,0.3-1.1,0.5-1.8,0.5h-1.1v1.4C37.2,34.2,37.9,34.8,38.6,34.8z"/>
	<polygon class="st0" points="14.4,21.6 14.4,21.6 29.4,21.6 29.4,21.6 29.5,21.4 14.4,21.4 	"/>
	<polygon class="st0" points="28.7,23.6 28.8,23.4 15,23.4 15.1,23.6 	"/>
	<path class="st0" d="M8.4,21.3c-0.7,0-1.2,0.5-1.2,1.2s0.5,1.2,1.2,1.2c0.7,0,1.2-0.5,1.2-1.2S9.1,21.3,8.4,21.3z"/>
	<path class="st0" d="M33.4,6.3c-0.2-0.6-0.9-1.1-1.6-1.1H12c-0.2,0-0.4,0-0.5,0.1c0,0-0.1,0-0.1,0.1c-0.1,0-0.2,0.1-0.3,0.2
		c0,0-0.1,0.1-0.1,0.1c-0.1,0.1-0.2,0.1-0.3,0.2c0,0.1-0.1,0.1-0.1,0.2c-0.1,0.1-0.1,0.2-0.2,0.3l-2.3,7.1h27.6L33.4,6.3z"/>
	<rect x="13.5" y="29.3" class="st0" width="16.9" height="1.7"/>
	<path class="st0" d="M3.8,31.5v1.9c0,0.8,0.6,1.4,1.4,1.4s1.4-0.6,1.4-1.4V32H5.5C4.9,32,4.3,31.8,3.8,31.5z"/>
	<path class="st0" d="M36.5,15.2H7.3l-3.2,4.1c-0.2,0.3-0.4,0.7-0.4,1.1v8c0,1,0.8,1.8,1.8,1.8h6.1v-1.8c0-0.5,0.4-0.9,0.9-0.9h18.7
		c0.5,0,0.9,0.4,0.9,0.9v1.8h6.1c1,0,1.8-0.8,1.8-1.8v-8c0-0.4-0.1-0.8-0.4-1.1L36.5,15.2z M8.4,25.5c-1.7,0-3-1.4-3-3
		c0-1.7,1.4-3,3-3c1.7,0,3,1.4,3,3C11.5,24.2,10.1,25.5,8.4,25.5z M31.6,20.8l-1.3,4c-0.1,0.4-0.5,0.6-0.9,0.6H14.4
		c-0.4,0-0.7-0.3-0.9-0.6l-1.3-4c-0.1-0.3,0-0.6,0.1-0.8c0.2-0.2,0.4-0.4,0.7-0.4h17.6c0.3,0,0.6,0.1,0.7,0.4
		c0.1,0.1,0.1,0.3,0.2,0.4C31.7,20.5,31.6,20.7,31.6,20.8z M35.4,25.5c-1.7,0-3-1.4-3-3c0-1.7,1.4-3,3-3s3,1.4,3,3
		C38.4,24.2,37.1,25.5,35.4,25.5z"/>
	<path class="st0" d="M42.2,12.7c0-0.4-0.3-0.6-0.6-0.6h-2.3c-0.3,0-0.5,0.2-0.6,0.4l-0.4,0.9h3.3C41.9,13.4,42.2,13.1,42.2,12.7z"
		/>
	<path class="st0" d="M2.5,12.1c-0.4,0-0.6,0.3-0.6,0.6c0,0.4,0.3,0.6,0.6,0.6h3.3l-0.4-0.9c-0.1-0.2-0.2-0.3-0.4-0.4
		c-0.1,0-0.1,0-0.2,0H2.5z"/>
	<circle class="st0" cx="35.4" cy="22.5" r="1.2"/>
	<path class="st1" d="M31.5,20c-0.2-0.2-0.4-0.4-0.7-0.4H13.1c-0.3,0-0.6,0.1-0.7,0.4c-0.2,0.2-0.2,0.5-0.1,0.8l1.3,4
		c0.1,0.4,0.5,0.6,0.9,0.6h14.9c0.4,0,0.7-0.3,0.9-0.6l1.3-4c0-0.1,0.1-0.3,0-0.4C31.6,20.2,31.6,20.1,31.5,20z M28.8,23.4l-0.1,0.2
		H15.1L15,23.4H28.8z M29.4,21.6C29.4,21.6,29.4,21.6,29.4,21.6h-15c0,0,0,0,0,0l-0.1-0.2h15.1L29.4,21.6z"/>
	<path class="st1" d="M44,12.7c0-1.4-1.1-2.5-2.5-2.5h-2.3c-0.9,0-1.7,0.5-2.2,1.3l-1.9-5.9c-0.5-1.4-1.9-2.3-3.4-2.3H12
		c-1.5,0-2.8,0.9-3.4,2.4l-1.8,5.7c-0.5-0.7-1.2-1.1-2.1-1.1H2.5c-1.4,0-2.5,1.1-2.5,2.5c0,1.4,1.1,2.5,2.5,2.5H5l-2.3,2.9
		c-0.5,0.6-0.8,1.4-0.8,2.2v8c0,0.1,0,0.3,0,0.4l0,0c0,0.1,0,0.2,0,0.2v4.3c0,1.8,1.5,3.3,3.3,3.3c1.8,0,3.3-1.5,3.3-3.3V32h3.2
		c0,0.5,0.4,0.9,0.9,0.9h18.7c0.5,0,0.9-0.4,0.9-0.9h3.2v1.4c0,1.8,1.5,3.3,3.3,3.3c1.8,0,3.3-1.5,3.3-3.3V29c0-0.1,0-0.2,0-0.2l0,0
		c0-0.1,0-0.3,0-0.4v-8c0-0.8-0.3-1.6-0.8-2.2l-2.3-2.9h2.7C42.9,15.2,44,14.1,44,12.7z M30.4,29.3V31H13.5v-1.7H30.4z M10.4,6.3
		c0-0.1,0.1-0.2,0.2-0.3c0-0.1,0.1-0.1,0.1-0.2c0.1-0.1,0.2-0.2,0.3-0.2c0,0,0.1-0.1,0.1-0.1c0.1-0.1,0.2-0.1,0.3-0.2
		c0,0,0.1,0,0.1-0.1c0.2-0.1,0.3-0.1,0.5-0.1h19.7c0.7,0,1.4,0.5,1.6,1.1l2.3,7.1H8.1L10.4,6.3z M37.2,32h1.1c0.6,0,1.2-0.2,1.8-0.5
		v1.9c0,0.8-0.6,1.4-1.4,1.4c-0.8,0-1.4-0.6-1.4-1.4V32z M40.1,28.4c0,1-0.8,1.8-1.8,1.8h-6.1v-1.8c0-0.5-0.4-0.9-0.9-0.9H12.5
		c-0.5,0-0.9,0.4-0.9,0.9v1.8H5.5c-1,0-1.8-0.8-1.8-1.8v-8c0-0.4,0.1-0.8,0.4-1.1l3.2-4.1h29.2l3.2,4.1c0.2,0.3,0.4,0.7,0.4,1.1
		V28.4z M6.6,32v1.4c0,0.8-0.6,1.4-1.4,1.4s-1.4-0.6-1.4-1.4v-1.9C4.3,31.8,4.9,32,5.5,32H6.6z M5.4,12.5l0.4,0.9H2.5
		c-0.4,0-0.6-0.3-0.6-0.6c0-0.4,0.3-0.6,0.6-0.6h2.3c0.1,0,0.1,0,0.2,0C5.2,12.2,5.3,12.3,5.4,12.5z M38.6,12.5
		c0.1-0.2,0.3-0.4,0.6-0.4h2.3c0.4,0,0.6,0.3,0.6,0.6c0,0.4-0.3,0.6-0.6,0.6h-3.3L38.6,12.5z"/>
	<path class="st1" d="M8.4,19.5c-1.7,0-3,1.4-3,3c0,1.7,1.4,3,3,3c1.7,0,3-1.4,3-3C11.5,20.8,10.1,19.5,8.4,19.5z M9.6,22.5
		c0,0.7-0.5,1.2-1.2,1.2c-0.7,0-1.2-0.5-1.2-1.2s0.5-1.2,1.2-1.2C9.1,21.3,9.6,21.8,9.6,22.5z"/>
	<path class="st1" d="M35.4,19.5c-1.7,0-3,1.4-3,3c0,1.7,1.4,3,3,3s3-1.4,3-3C38.4,20.8,37.1,19.5,35.4,19.5z M36.6,22.5
		c0,0.7-0.5,1.2-1.2,1.2s-1.2-0.5-1.2-1.2s0.5-1.2,1.2-1.2S36.6,21.8,36.6,22.5z"/>
</g>
</svg>
