<?xml version="1.0" encoding="utf-8"?>
<!-- Generator: Adobe Illustrator 25.2.1, SVG Export Plug-In . SVG Version: 6.00 Build 0)  -->
<svg version="1.1" id="Layer_1" xmlns="http://www.w3.org/2000/svg" xmlns:xlink="http://www.w3.org/1999/xlink" x="0px" y="0px"
	 viewBox="0 0 44 40" style="enable-background:new 0 0 44 40;" xml:space="preserve">
<style type="text/css">
	.st0{fill:none;}
	.st1{fill:#003E6B;}
</style>
<g>
	<polygon class="st0" points="34,24.8 33.4,24.8 33.7,26 	"/>
	<polygon class="st0" points="18.4,17.5 34.9,17.5 34.9,10.7 2.1,10.7 2.1,37 34.9,37 34.9,31.6 18.4,31.6 	"/>
	<polygon class="st0" points="31.7,23.5 31.8,23.5 31.7,23.3 	"/>
	<rect x="2.1" y="3" class="st0" width="32.8" height="5.7"/>
	<polygon class="st0" points="30.1,24.8 29.5,24.8 29.8,26 	"/>
	<path class="st0" d="M20.4,19.6v10H37h5v-10h-5H20.4z M36.8,24.8h-1.4l-1,4H33l-0.9-4h-0.7l-0.9,4h-1.4l-1-4h-1.4v-1.3h1.1L27,20.3
		h1.5l0.7,3.2h1.1l0.7-3.2h1.4l0.7,3.2h1.1l0.7-3.2h1.5l-0.8,3.2h1.1V24.8z"/>
	<path class="st1" d="M37,17.5V9.7v-1V0.9H0v7.8v1v29.4h37v-7.5h7V17.5H37z M2.1,3h32.8v5.7H2.1V3z M34.9,37H2.1V10.7h32.8v6.7H18.4
		v14.1h16.5V37z M41.9,29.5h-5H20.4v-10H37h5V29.5z"/>
	<path class="st1" d="M35.2,21h-1.2l-0.6,2.7h-0.9L31.8,21h-1.2L30,23.7h-0.9L28.5,21h-1.3l0.7,2.7H27v1.1h1.2l0.8,3.4h1.1l0.8-3.4
		h0.6l0.8,3.4h1.1l0.8-3.4h1.2v-1.1h-0.9L35.2,21z M33.1,24.8l-0.2,1l-0.2-1H33.1z M31.2,23.7L31.2,23.7l0-0.1L31.2,23.7z
		 M29.8,24.8l-0.2,1l-0.2-1H29.8z"/>
</g>
</svg>
