<svg xmlns="http://www.w3.org/2000/svg" viewBox="0 0 44 40"><defs><style>.cls-1{fill:#003e6b;}.cls-2{fill:none;}</style></defs><g id="레이어_2" data-name="레이어 2"><g id="레이어_1-2" data-name="레이어 1"><path class="cls-1" d="M18,40H11.71a1.17,1.17,0,0,1-1.17-1.17V31H7.81a4.45,4.45,0,0,1-4.45-4.45v-4H1.78a1.17,1.17,0,0,1-.95-.48,1.15,1.15,0,0,1-.16-1L3.36,12.8v-.9A11.89,11.89,0,0,1,22.73,2.65a1.15,1.15,0,0,1,0,1.81,9.53,9.53,0,0,0-3.55,7.44l0,26.93A1.17,1.17,0,0,1,18,40Zm-5.11-2.34h3.94l0-25.76a11.85,11.85,0,0,1,3.3-8.22,9.42,9.42,0,0,0-4.88-1.34A9.57,9.57,0,0,0,5.69,11.9V13a1.09,1.09,0,0,1-.06.36L3.39,20.2H4.52a1.17,1.17,0,0,1,1.17,1.17v5.14a2.11,2.11,0,0,0,2.12,2.11h3.9a1.17,1.17,0,0,1,1.16,1.17Z"/><path class="cls-1" d="M32.29,40H18a1.16,1.16,0,0,1-1.17-1.17l0-26.93a11.9,11.9,0,0,1,23.8,0v.9L43.33,21a1.15,1.15,0,0,1-.16,1,1.17,1.17,0,0,1-1,.48H40.64v4A4.45,4.45,0,0,1,36.19,31H33.46v7.87A1.17,1.17,0,0,1,32.29,40ZM19.15,37.66h12V29.79a1.17,1.17,0,0,1,1.16-1.17h3.9a2.11,2.11,0,0,0,2.12-2.11V21.37a1.17,1.17,0,0,1,1.17-1.17h1.13l-2.24-6.85a1.09,1.09,0,0,1-.06-.36V11.9a9.57,9.57,0,1,0-19.13,0Z"/><rect class="cls-2" width="44" height="40"/></g></g></svg>