<svg xmlns="http://www.w3.org/2000/svg" viewBox="0 0 42 34"><defs><style>.cls-1{fill:#005bac;}.cls-2{fill:none;}</style></defs><g id="레이어_2" data-name="레이어 2"><g id="레이어_1-2" data-name="레이어 1"><path class="cls-1" d="M36.62,34H5.38a.89.89,0,0,1-.89-.89V.89A.89.89,0,0,1,5.38,0H27.79a.89.89,0,0,1,.89.89V13.06h7.94a.89.89,0,0,1,.89.89V33.11A.89.89,0,0,1,36.62,34ZM6.28,32.21H35.72V14.85H27.79a.9.9,0,0,1-.9-.9V1.79H6.28Z"/><path class="cls-1" d="M19.92,17.42h-7a.89.89,0,0,1-.89-.89V8a.89.89,0,0,1,.89-.89h7a.89.89,0,0,1,.9.89v8.5A.89.89,0,0,1,19.92,17.42Zm-6.1-1.79H19V8.93H13.82Z"/><path class="cls-1" d="M19.92,25.71h-7a.89.89,0,0,1-.89-.89v-8.5a.89.89,0,0,1,.89-.89h7a.89.89,0,0,1,.9.89v8.5A.89.89,0,0,1,19.92,25.71Zm-6.1-1.79H19v-6.7H13.82Z"/><path class="cls-1" d="M19.92,34h-7a.89.89,0,0,1-.89-.89v-8.5a.89.89,0,0,1,.89-.89h7a.89.89,0,0,1,.9.89v8.5A.89.89,0,0,1,19.92,34Zm-6.1-1.79H19V25.5H13.82Z"/><rect class="cls-2" width="42" height="34"/></g></g></svg>