<svg xmlns="http://www.w3.org/2000/svg" viewBox="0 0 44 40"><defs><style>.cls-1{fill:none;}.cls-2{fill:#003e6b;}</style></defs><g id="레이어_2" data-name="레이어 2"><g id="레이어_1-2" data-name="레이어 1"><rect class="cls-1" width="44" height="40"/><rect class="cls-2" x="1.58" y="34.52" width="40.83" height="1.97"/><rect class="cls-2" x="1.58" y="27.1" width="40.83" height="1.97"/><path class="cls-2" d="M.3,29.07V3.51H43.7V29.07Zm2-2H41.73V5.48H2.27Z"/><path class="cls-2" d="M22,23.61a7.32,7.32,0,1,1,7.32-7.32A7.33,7.33,0,0,1,22,23.61Zm0-12.67a5.35,5.35,0,1,0,5.35,5.35A5.36,5.36,0,0,0,22,10.94Z"/><rect class="cls-2" x="33.18" y="15.3" width="5" height="1.97"/><rect class="cls-2" x="5.82" y="15.3" width="5" height="1.97"/></g></g></svg>