<?xml version="1.0" encoding="utf-8"?>
<!-- Generator: Adobe Illustrator 25.2.1, SVG Export Plug-In . SVG Version: 6.00 Build 0)  -->
<svg version="1.1" id="Layer_1" xmlns="http://www.w3.org/2000/svg" xmlns:xlink="http://www.w3.org/1999/xlink" x="0px" y="0px"
	 viewBox="0 0 44 40" style="enable-background:new 0 0 44 40;" xml:space="preserve">
<style type="text/css">
	.st0{fill:#003E6B;}
</style>
<g>
	<path class="st0" d="M29.3,10h-3.5c-0.4-0.9-1.3-1.5-2.4-1.5h-3.2V6.1H28c0.6,0,1.1-0.5,1.1-1.1V1.1C29.1,0.5,28.6,0,28,0H10.3
		C9.7,0,9.2,0.5,9.2,1.1V5c0,0.6,0.5,1.1,1.1,1.1h7.8v2.4h-3.2c-1,0-1.9,0.6-2.4,1.5H6c-0.6,0-1.1,0.5-1.1,1.1s0.5,1.1,1.1,1.1h0
		h6.3v6.4H6h0c-0.6,0-1.1,0.5-1.1,1.1c0,0.6,0.5,1.1,1.1,1.1h6.5c0.4,0.9,1.3,1.5,2.4,1.5h8.6c1,0,1.9-0.6,2.4-1.5h2.5v5.9
		c0,0.6,0.5,1.1,1.1,1.1H38c0.6,0,1.1-0.5,1.1-1.1v-6.9C39.1,14.4,34.7,10,29.3,10z M37,25.6h-6.4v-5.8c0-0.7-0.6-1.2-1.2-1.2h-3.2
		v-6.4h3.2c4.2,0,7.7,3.4,7.7,7.7V25.6z M23.4,20.1h-8.6c-0.2,0-0.4-0.2-0.4-0.4v-8.6c0-0.2,0.2-0.4,0.4-0.4h8.6
		c0.2,0,0.4,0.2,0.4,0.4v8.6C23.9,19.9,23.7,20.1,23.4,20.1z M11.3,2.2h15.6v1.7H11.3V2.2z"/>
	<path class="st0" d="M32.9,30.2c-0.7,0.9-3.2,3.9-3.2,5.7c0,2.2,1.8,4,4,4s4-1.8,4-4c0-1.9-2.4-4.9-3.2-5.7
		C34.1,29.7,33.3,29.7,32.9,30.2z M33.7,37.8c-1,0-1.8-0.8-1.8-1.8c0-0.6,0.9-2,1.8-3.3c1,1.3,1.8,2.7,1.8,3.3
		C35.6,37,34.8,37.8,33.7,37.8z"/>
</g>
</svg>
