<svg xmlns="http://www.w3.org/2000/svg" viewBox="0 0 44 40"><defs><style>.cls-1{fill:none;}.cls-2{fill:#003e6b;}</style></defs><g id="레이어_2" data-name="레이어 2"><g id="레이어_1-2" data-name="레이어 1"><rect class="cls-1" width="44" height="40"/><path class="cls-2" d="M10.33,38.22a.85.85,0,0,1-.85-.85V2.63a.85.85,0,0,1,.85-.85H33.67a.85.85,0,0,1,.85.85V37.37a.85.85,0,0,1-.85.85Zm.85-1.7H32.82v-33H11.18Z"/><path class="cls-2" d="M19.63,38.22a.85.85,0,0,1-.85-.85V31.48a.85.85,0,0,1,.85-.85h4.74a.85.85,0,0,1,.85.85v5.89a.85.85,0,0,1-.85.85Zm.85-1.7h3V32.33h-3Z"/><rect class="cls-2" x="14.38" y="6.56" width="1.61" height="1.7"/><rect class="cls-2" x="18.92" y="6.56" width="1.61" height="1.7"/><rect class="cls-2" x="23.47" y="6.56" width="1.61" height="1.7"/><rect class="cls-2" x="28.01" y="6.56" width="1.61" height="1.7"/><rect class="cls-2" x="14.38" y="10.75" width="1.61" height="1.7"/><rect class="cls-2" x="18.92" y="10.75" width="1.61" height="1.7"/><rect class="cls-2" x="23.47" y="10.75" width="1.61" height="1.7"/><rect class="cls-2" x="28.01" y="10.75" width="1.61" height="1.7"/><rect class="cls-2" x="14.38" y="14.94" width="1.61" height="1.7"/><rect class="cls-2" x="18.92" y="14.94" width="1.61" height="1.7"/><rect class="cls-2" x="23.47" y="14.94" width="1.61" height="1.7"/><rect class="cls-2" x="28.01" y="14.94" width="1.61" height="1.7"/><rect class="cls-2" x="14.38" y="19.12" width="1.61" height="1.7"/><rect class="cls-2" x="18.92" y="19.12" width="1.61" height="1.7"/><rect class="cls-2" x="23.47" y="19.12" width="1.61" height="1.7"/><rect class="cls-2" x="28.01" y="19.12" width="1.61" height="1.7"/><rect class="cls-2" x="14.38" y="23.31" width="1.61" height="1.7"/><rect class="cls-2" x="18.92" y="23.31" width="1.61" height="1.7"/><rect class="cls-2" x="23.47" y="23.31" width="1.61" height="1.7"/><rect class="cls-2" x="28.01" y="23.31" width="1.61" height="1.7"/><path class="cls-2" d="M1.52,38.22a.85.85,0,0,1-.85-.85V19.48a.85.85,0,0,1,.85-.85h8.81a.85.85,0,0,1,.85.85V37.37a.85.85,0,0,1-.85.85Zm.85-1.7H9.48V20.33H2.37Z"/><path class="cls-2" d="M33.67,38.22a.85.85,0,0,1-.85-.85V19.48a.85.85,0,0,1,.85-.85h8.81a.85.85,0,0,1,.85.85V37.37a.85.85,0,0,1-.85.85Zm.85-1.7h7.11V20.33H34.52Z"/></g></g></svg>