<svg xmlns="http://www.w3.org/2000/svg" viewBox="0 0 44 40"><defs><style>.cls-1{fill:none;}.cls-2{fill:#003c6d;}</style></defs><g id="레이어_2" data-name="레이어 2"><g id="레이어_1-2" data-name="레이어 1"><rect class="cls-1" width="44" height="40"/><path class="cls-2" d="M27.13,10a5,5,0,1,1,5-5A5,5,0,0,1,27.13,10Zm0-7.62A2.64,2.64,0,1,0,29.77,5,2.64,2.64,0,0,0,27.13,2.35Z"/><polygon class="cls-2" points="12.29 34.52 4.97 34.52 4.97 32.17 10.99 32.17 17.43 21.93 26.2 21.93 26.2 8.08 28.54 8.08 28.54 24.27 18.73 24.27 12.29 34.52"/><path class="cls-2" d="M27.25,40a11.74,11.74,0,0,1-8.33-3.45,1.19,1.19,0,0,1,0-1.66,1.17,1.17,0,0,1,1.66,0,9.43,9.43,0,1,0,6.67-16.1,1.18,1.18,0,0,1,0-2.35,11.78,11.78,0,1,1,0,23.56Z"/><rect class="cls-2" x="17.6" y="15.25" width="9.53" height="2.35"/></g></g></svg>