<svg xmlns="http://www.w3.org/2000/svg" viewBox="0 0 44 40"><defs><style>.cls-1{fill:none;}.cls-2{fill:#003e6b;}</style></defs><g id="레이어_2" data-name="레이어 2"><g id="레이어_1-2" data-name="레이어 1"><rect class="cls-1" width="44" height="40"/><path class="cls-2" d="M43,35.88a.78.78,0,0,1-.22,0L5.56,27.72l-4,2.61a1,1,0,0,1-1,.05,1,1,0,0,1-.54-.9V10.55a1,1,0,0,1,.54-.91,1,1,0,0,1,1.05,0l4,2.63L42.76,4.19a1,1,0,0,1,.86.2,1,1,0,0,1,.38.8V34.85a1,1,0,0,1-1,1ZM5.35,25.6l.22,0,36.38,8V6.46l-36.38,8a1,1,0,0,1-.86-.2l-.06-.06-2.6-1.71V27.58l2.74-1.81A1,1,0,0,1,5.35,25.6Z"/></g></g></svg>