<svg xmlns="http://www.w3.org/2000/svg" viewBox="0 0 44 40"><defs><style>.cls-1{fill:none;}.cls-2{fill:#003e6b;}</style></defs><g id="레이어_2" data-name="레이어 2"><g id="레이어_1-2" data-name="레이어 1"><rect class="cls-1" width="44" height="40"/><path class="cls-2" d="M16.5,37a1.06,1.06,0,0,1-1.06-1V21.24a2.87,2.87,0,0,0-2.53-3.11,2.88,2.88,0,0,0-2.54,3.12V23a1.06,1.06,0,0,1-2.11,0V21.25A5,5,0,0,1,12.91,16a5,5,0,0,1,4.64,5.22V35.93A1,1,0,0,1,16.5,37Z"/><path class="cls-2" d="M19.14,12.17a6.09,6.09,0,1,1,6.08-6.08A6.09,6.09,0,0,1,19.14,12.17Zm0-10.06a4,4,0,1,0,4,4A4,4,0,0,0,19.14,2.11Z"/><path class="cls-2" d="M26,40a1.81,1.81,0,0,1-1.81-1.81V30.33A7.21,7.21,0,0,0,24,29.15c-.19-.47-1.2-2.9-3.77-7.73-3.11-5.84.45-9,.86-9.33A7.43,7.43,0,0,1,23.93,11L24,11a8.83,8.83,0,0,1,1.24-.09,6.38,6.38,0,0,1,5.13,2.41c5.35,6.47,2,24.37,1.84,25.13A2,2,0,0,1,30.3,40Zm4.2-2.11c.29-1.57,3.09-17.83-1.41-23.28A4.33,4.33,0,0,0,25.26,13a7.31,7.31,0,0,0-.91.06,8.08,8.08,0,0,0-1.82.63.27.27,0,0,1-.1.08c-.11.09-2.73,2.13-.3,6.69a84.54,84.54,0,0,1,3.9,8,.74.74,0,0,1,0,.14,8.42,8.42,0,0,1,.2,1.73v7.56Z"/></g></g></svg>