<svg xmlns="http://www.w3.org/2000/svg" viewBox="0 0 44 40"><defs><style>.cls-1{fill:none;}.cls-2{fill:#003e6b;}</style></defs><g id="레이어_2" data-name="레이어 2"><g id="레이어_1-2" data-name="레이어 1"><rect class="cls-1" width="44" height="40"/><path class="cls-2" d="M41.19,18.93H39V3.73A2.83,2.83,0,0,0,36.21.91H7.79A2.83,2.83,0,0,0,5,3.73v15.2H2.81A2.81,2.81,0,0,0,0,21.74V31a2.81,2.81,0,0,0,2.81,2.81H5v2.44a2.83,2.83,0,0,0,2.82,2.82H36.21A2.83,2.83,0,0,0,39,36.27V33.83h2.16A2.81,2.81,0,0,0,44,31V21.74A2.81,2.81,0,0,0,41.19,18.93ZM6.85,3.73a.94.94,0,0,1,.94-.94H36.21a.94.94,0,0,1,.94.94v15.2H6.85Zm30.3,32.54a.94.94,0,0,1-.94.94H7.79a.94.94,0,0,1-.94-.94V29.52a.94.94,0,0,1,.94-.94H36.21a.94.94,0,0,1,.94.94Zm5-5.25a.94.94,0,0,1-.93.94H39V29.52a2.82,2.82,0,0,0-2.82-2.82H7.79A2.82,2.82,0,0,0,5,29.52V32H2.81A.94.94,0,0,1,1.88,31V21.74a.94.94,0,0,1,.93-.94H41.19a.94.94,0,0,1,.93.94Z"/><path class="cls-2" d="M31.15,8.74H12.85a.94.94,0,1,1,0-1.87h18.3a.94.94,0,1,1,0,1.87Z"/><path class="cls-2" d="M31.15,14.47H12.85a.94.94,0,0,1,0-1.88h18.3a.94.94,0,0,1,0,1.88Z"/></g></g></svg>