<?xml version="1.0" encoding="utf-8"?>
<!-- Generator: Adobe Illustrator 25.2.1, SVG Export Plug-In . SVG Version: 6.00 Build 0)  -->
<svg version="1.1" id="Layer_1" xmlns="http://www.w3.org/2000/svg" xmlns:xlink="http://www.w3.org/1999/xlink" x="0px" y="0px"
	 viewBox="0 0 42 34" style="enable-background:new 0 0 42 34;" xml:space="preserve">
<style type="text/css">
	.st0{fill:#005BAC;}
</style>
<g id="레이어_2">
	<g id="레이어_1-2">
		<g>
			<path class="st0" d="M36.6,33.5H5.4c-0.5,0-0.9-0.4-0.9-0.9V9.9C4.5,9.4,4.9,9,5.4,9h31.1c0.5,0,0.9,0.4,0.9,0.9v22.6
				C37.5,33.1,37.1,33.5,36.6,33.5z M6.4,31.6h29.2V10.9H6.4V31.6z"/>
			<g>
				<path class="st0" d="M20.8,10.9c-0.2,0-0.4-0.1-0.6-0.2L9.9,2.2C9.5,1.8,9.5,1.2,9.8,0.8c0.3-0.4,0.9-0.5,1.3-0.1l10.2,8.5
					c0.4,0.3,0.5,0.9,0.1,1.3C21.3,10.8,21,10.9,20.8,10.9z"/>
				<path class="st0" d="M21.2,10.9c-0.3,0-0.5-0.1-0.7-0.3c-0.3-0.4-0.3-1,0.1-1.3l10.2-8.5c0.4-0.3,1-0.3,1.3,0.1
					c0.3,0.4,0.3,1-0.1,1.3l-10.2,8.5C21.7,10.8,21.5,10.9,21.2,10.9z"/>
			</g>
			<path class="st0" d="M18.2,26.1c-0.3,0-0.6-0.1-0.8-0.2c-0.5-0.3-0.8-0.8-0.8-1.4v-6.5c0-0.6,0.3-1.1,0.8-1.4
				c0.5-0.3,1.1-0.3,1.6,0l6.2,3.3c0.5,0.3,0.9,0.8,0.9,1.4c0,0.6-0.3,1.2-0.9,1.4L19,25.9C18.8,26,18.5,26.1,18.2,26.1z M18.5,18.3
				V24l5.4-2.9L18.5,18.3z"/>
		</g>
	</g>
</g>
</svg>
