<svg xmlns="http://www.w3.org/2000/svg" viewBox="0 0 44 40"><defs><style>.cls-1{fill:none;}.cls-2{fill:#036;}</style></defs><g id="레이어_2" data-name="레이어 2"><g id="레이어_1-2" data-name="레이어 1"><rect class="cls-1" width="44" height="40"/><path class="cls-2" d="M33.37,40H10.94A4.24,4.24,0,0,1,6.7,35.76V18.3a15.46,15.46,0,0,1,30.92,0V35.76A4.25,4.25,0,0,1,33.37,40ZM22.16,5A13.31,13.31,0,0,0,8.87,18.3V35.76a2.07,2.07,0,0,0,2.07,2.07H33.37a2.08,2.08,0,0,0,2.08-2.07V18.3A13.31,13.31,0,0,0,22.16,5Z"/><rect class="cls-2" x="7.47" y="25.59" width="28.75" height="2.17"/><path class="cls-2" d="M8,36.52H6.2a4.09,4.09,0,0,1-4.09-4.09V23.68A4.09,4.09,0,0,1,6.2,19.59H8v2.17H6.2a1.92,1.92,0,0,0-1.92,1.92v8.75A1.92,1.92,0,0,0,6.2,34.35H8Z"/><path class="cls-2" d="M37.8,36.52H36V34.35H37.8a1.92,1.92,0,0,0,1.92-1.92V23.68a1.92,1.92,0,0,0-1.92-1.92H36V19.59H37.8a4.09,4.09,0,0,1,4.09,4.09v8.75A4.09,4.09,0,0,1,37.8,36.52Z"/><path class="cls-2" d="M11,10.56H8.79v-7a3.62,3.62,0,0,1,7.23,0V5.73H13.85V3.61a1.45,1.45,0,0,0-2.89,0Z"/><path class="cls-2" d="M35.21,10.56H33v-7a1.45,1.45,0,0,0-2.89,0V5.73H28V3.61a3.62,3.62,0,0,1,7.23,0Z"/><rect class="cls-2" x="15.65" y="13.35" width="12.69" height="2.17"/></g></g></svg>