<svg xmlns="http://www.w3.org/2000/svg" viewBox="0 0 14 14"><defs><style>.cls-1{fill:#fff;}</style></defs><g id="레이어_2" data-name="레이어 2"><g id="레이어_1-2" data-name="레이어 1"><path class="cls-1" d="M2,0A2,2,0,0,0,0,2V4A2,2,0,0,0,2,6H4A2,2,0,0,0,6,4V2A2,2,0,0,0,4,0Z"/><path class="cls-1" d="M2,8a2,2,0,0,0-2,2v2a2,2,0,0,0,2,2H4a2,2,0,0,0,2-2V10A2,2,0,0,0,4,8Z"/><path class="cls-1" d="M8,2a2,2,0,0,1,2-2h2a2,2,0,0,1,2,2V4a2,2,0,0,1-2,2H10A2,2,0,0,1,8,4Z"/><path class="cls-1" d="M8,10a2,2,0,0,1,2-2h2a2,2,0,0,1,2,2v2a2,2,0,0,1-2,2H10a2,2,0,0,1-2-2Z"/></g></g></svg>