<svg xmlns="http://www.w3.org/2000/svg" viewBox="0 0 44 40"><defs><style>.cls-1{fill:none;}.cls-2{fill:#003e6b;}</style></defs><g id="레이어_2" data-name="레이어 2"><g id="레이어_1-2" data-name="레이어 1"><rect class="cls-1" width="44" height="40"/><path class="cls-1" d="M12.87,14.22A2.85,2.85,0,1,0,10,11.37,2.86,2.86,0,0,0,12.87,14.22Z"/><path class="cls-1" d="M10.17,15.17a4.68,4.68,0,0,1-2-3.8,4.34,4.34,0,0,1,0-.63H6.59V24.85H7.1L8,18.53A4.37,4.37,0,0,1,10.17,15.17Z"/><path class="cls-1" d="M17.53,11.37a4.65,4.65,0,0,1-2,3.8,4.37,4.37,0,0,1,2.18,3.37l.89,6.31H33.39v-8.5H27.2A11.2,11.2,0,0,1,20,19.57a12.27,12.27,0,0,0,2.78-3.22H22a1.53,1.53,0,0,1-1.53-1.52V10.74h-3A4.35,4.35,0,0,1,17.53,11.37Z"/><path class="cls-1" d="M13,16.31h-.22a2.76,2.76,0,0,0-3,2.47l-.86,6.07h7.88L16,18.79A2.77,2.77,0,0,0,13,16.31Z"/><path class="cls-1" d="M2.31,7.26V28.32A.65.65,0,0,0,3,29H37a.66.66,0,0,0,.65-.65v-12H35.21V25a1.68,1.68,0,0,1-1.68,1.68H6.46A1.68,1.68,0,0,1,4.78,25V10.6A1.69,1.69,0,0,1,6.46,8.92H8.91a4.65,4.65,0,0,1,7.92,0h3.62V6.62H3A.65.65,0,0,0,2.31,7.26Z"/><path class="cls-2" d="M41.07,1.73H22a2.43,2.43,0,0,0-2.43,2.43v.65H3A2.46,2.46,0,0,0,.5,7.26V28.32A2.46,2.46,0,0,0,3,30.78H37a2.46,2.46,0,0,0,2.46-2.46V17.26h1.58a2.43,2.43,0,0,0,2.43-2.43V4.16A2.43,2.43,0,0,0,41.07,1.73ZM19.12,19.82a.91.91,0,0,0,.87.66h0a12.09,12.09,0,0,0,7.57-3.22h5.81v7.59H18.64l-.89-6.31a4.37,4.37,0,0,0-2.18-3.37,4.65,4.65,0,0,0,2-3.8,4.35,4.35,0,0,0,0-.63h2.06v4.09a2.42,2.42,0,0,0,1.58,2.27,7.12,7.12,0,0,1-1.6,1.69A.92.92,0,0,0,19.12,19.82Zm-9-4.65A4.37,4.37,0,0,0,8,18.53L7.1,24.85H6.59V10.74H8.26a4.34,4.34,0,0,0,0,.63A4.68,4.68,0,0,0,10.17,15.17ZM10,11.37a2.85,2.85,0,1,1,2.85,2.85A2.86,2.86,0,0,1,10,11.37Zm-.23,7.41a2.76,2.76,0,0,1,3-2.47H13a2.77,2.77,0,0,1,3,2.48l.85,6.06H8.93Zm27.89,9.54A.66.66,0,0,1,37,29H3a.65.65,0,0,1-.65-.65V7.26A.65.65,0,0,1,3,6.62H19.55v2.3H16.83a4.65,4.65,0,0,0-7.92,0H6.46A1.69,1.69,0,0,0,4.78,10.6V25a1.68,1.68,0,0,0,1.68,1.68H33.53A1.68,1.68,0,0,0,35.21,25V17.26h2.47Zm4-13.49a.61.61,0,0,1-.62.61H27.2a.92.92,0,0,0-.66.29,9.32,9.32,0,0,1-3.92,2.41c.29-.38.59-.81.91-1.29a.91.91,0,0,0-.76-1.41H22a.61.61,0,0,1-.62-.61V4.16A.62.62,0,0,1,22,3.55H41.07a.61.61,0,0,1,.62.61Z"/><path class="cls-2" d="M37.73,10.4H24.85a.91.91,0,0,1,0-1.81H37.73a.91.91,0,1,1,0,1.81Z"/><path class="cls-2" d="M20,35.08a.9.9,0,0,1-.9-.91v-4.3a.91.91,0,0,1,1.81,0v4.3A.91.91,0,0,1,20,35.08Z"/><path class="cls-2" d="M31.71,38.27H8.28a2.55,2.55,0,0,1-2.72-2.33,2.55,2.55,0,0,1,2.72-2.32H31.71a2.54,2.54,0,0,1,2.71,2.32A2.55,2.55,0,0,1,31.71,38.27ZM8.28,35.43c-.54,0-.9.31-.9.51s.36.51.9.51H31.71c.54,0,.9-.3.9-.51s-.36-.51-.9-.51Z"/></g></g></svg>