<svg xmlns="http://www.w3.org/2000/svg" viewBox="0 0 44 40"><defs><style>.cls-1{fill:none;}.cls-2{fill:#003e6b;}</style></defs><g id="레이어_2" data-name="레이어 2"><g id="레이어_1-2" data-name="레이어 1"><rect class="cls-1" width="44" height="40"/><path class="cls-2" d="M10.42,14.73a2.63,2.63,0,1,1,2.63-2.63A2.63,2.63,0,0,1,10.42,14.73Zm0-3.92a1.29,1.29,0,1,0,1.29,1.29A1.29,1.29,0,0,0,10.42,10.81Z"/><path class="cls-2" d="M21.93,14.73a2.63,2.63,0,1,1,2.62-2.63A2.63,2.63,0,0,1,21.93,14.73Zm0-3.92a1.29,1.29,0,1,0,1.29,1.29A1.29,1.29,0,0,0,21.93,10.81Z"/><path class="cls-2" d="M33.58,14.73a2.63,2.63,0,1,1,2.63-2.63A2.63,2.63,0,0,1,33.58,14.73Zm0-3.92a1.29,1.29,0,1,0,1.29,1.29A1.29,1.29,0,0,0,33.58,10.81Z"/><path class="cls-2" d="M43,34.5h-3a3,3,0,0,0,.23-1.15V6.65a3.06,3.06,0,0,0-3.06-3.06H29.92a3.07,3.07,0,0,0-2.17.91,3,3,0,0,0-2.17-.91H18.27a3.05,3.05,0,0,0-2.1.84,3,3,0,0,0-2.09-.84H6.77A3.06,3.06,0,0,0,3.71,6.65v26.7a3,3,0,0,0,.23,1.15H1a1,1,0,1,0,0,1.91H43a1,1,0,1,0,0-1.91Zm-36.27,0a1.15,1.15,0,0,1-1.14-1.15V6.65A1.15,1.15,0,0,1,6.77,5.5h7.31a1.15,1.15,0,0,1,1.14,1.15v26.7a1.15,1.15,0,0,1-1.14,1.15Zm11.5,0a1.15,1.15,0,0,1-1.14-1.15V6.65A1.15,1.15,0,0,1,18.27,5.5h7.31a1.15,1.15,0,0,1,1.14,1.15v26.7a1.15,1.15,0,0,1-1.14,1.15Zm11.65,0a1.15,1.15,0,0,1-1.14-1.15V6.65A1.15,1.15,0,0,1,29.92,5.5h7.31a1.15,1.15,0,0,1,1.14,1.15v26.7a1.15,1.15,0,0,1-1.14,1.15Z"/></g></g></svg>