<svg xmlns="http://www.w3.org/2000/svg" viewBox="0 0 44 40"><defs><style>.cls-1{fill:none;}.cls-2{fill:#003e6b;}</style></defs><g id="레이어_2" data-name="레이어 2"><g id="레이어_1-2" data-name="레이어 1"><rect class="cls-1" width="44" height="40"/><path class="cls-2" d="M5,34V5.33A5.13,5.13,0,0,1,10.15.2H39V31H10.15A3.13,3.13,0,0,0,7,34ZM10.15,2.2A3.14,3.14,0,0,0,7,5.33V30.07l.31-.21A5.15,5.15,0,0,1,10.15,29H37V2.2Z"/><path class="cls-2" d="M10.15,39.8A5.13,5.13,0,0,1,5,34.67v-.52A5.13,5.13,0,0,1,10.15,29H39V39.8Zm0-8.78A3.13,3.13,0,0,0,7,34.15v.52a3.14,3.14,0,0,0,3.13,3.13H37V31Z"/><rect class="cls-2" x="15.28" y="8.44" width="15.35" height="2"/><rect class="cls-2" x="15.28" y="13.54" width="15.35" height="2"/><rect class="cls-2" x="15.28" y="18.63" width="15.35" height="2"/></g></g></svg>