<svg xmlns="http://www.w3.org/2000/svg" viewBox="0 0 42 34"><defs><style>.cls-1{fill:#005bac;}.cls-2{fill:none;}</style></defs><g id="레이어_2" data-name="레이어 2"><g id="레이어_1-2" data-name="레이어 1"><path class="cls-1" d="M12.43,33h-.06a.88.88,0,0,1-.69-.31,1,1,0,0,1,.72-1.56h0a.9.9,0,0,1,.69.32.94.94,0,0,1,0,1.25A.92.92,0,0,1,12.43,33Zm0-.94.68.59a.92.92,0,0,0,0-1.16Zm-.66-.57a.91.91,0,0,0,0,1.16l.65-.57,0-.08Z"/><path class="cls-1" d="M12.4,33h0a.91.91,0,0,1-.69-.31l-.42-.42C8.62,29.62,5,25.79,4,22.53a11.57,11.57,0,0,1-.7-4,9.23,9.23,0,0,1,9.14-9.3,9.23,9.23,0,0,1,9.14,9.3,11.69,11.69,0,0,1-.7,4c-1,3.25-4.66,7.07-7.32,9.67l-.43.42A.93.93,0,0,1,12.4,33Zm0-21.89a7.41,7.41,0,0,0-7.32,7.47A10.06,10.06,0,0,0,5.7,22c1,3.08,5.11,7.2,6.7,8.76C14,29.2,18.14,25.08,19.09,22a10,10,0,0,0,.63-3.48A7.41,7.41,0,0,0,12.4,11.06Zm0,11.73a4.21,4.21,0,1,1,4.21-4.21A4.21,4.21,0,0,1,12.43,22.79Zm0-6.59a2.38,2.38,0,1,0,2.38,2.38A2.39,2.39,0,0,0,12.43,16.2Z"/><path class="cls-1" d="M27.36,33H22.79a.92.92,0,1,1,0-1.83h4.57a.92.92,0,0,1,0,1.83Zm-9.14,0H13.64a.92.92,0,0,1,0-1.83h4.58a.92.92,0,0,1,0,1.83Zm13.7-.18a.92.92,0,0,1-.2-1.81,6.63,6.63,0,0,0,3.43-2,.91.91,0,0,1,1.34,1.24,8.39,8.39,0,0,1-4.38,2.52Zm5.84-6.31h-.13a.91.91,0,0,1-.78-1,7.14,7.14,0,0,0,.07-.93,8.42,8.42,0,0,0-.56-3.1.91.91,0,0,1,.52-1.18.9.9,0,0,1,1.18.51,10.11,10.11,0,0,1,.68,3.77,7.84,7.84,0,0,1-.08,1.19A.91.91,0,0,1,37.76,26.51ZM34.3,18.62a1,1,0,0,1-.43-.1,5.42,5.42,0,0,0-2.57-.61H29.9A.93.93,0,0,1,29,17a.88.88,0,0,1,.89-.91H31.3a7.26,7.26,0,0,1,3.43.81.91.91,0,0,1,.38,1.24A.9.9,0,0,1,34.3,18.62Zm-8.63-2.28a.89.89,0,0,1-.62-.25,8.14,8.14,0,0,1-2.38-4.46.91.91,0,0,1,1.79-.36,6.37,6.37,0,0,0,1.83,3.48A.92.92,0,0,1,26.35,16,.93.93,0,0,1,25.67,16.34ZM23.8,7.86a1.18,1.18,0,0,1-.31-.05.92.92,0,0,1-.55-1.17,8.49,8.49,0,0,1,3-4A.92.92,0,0,1,27,4.09a6.61,6.61,0,0,0-2.38,3.16A.91.91,0,0,1,23.8,7.86Zm7-5a.92.92,0,0,1,0-1.83h4.59a.92.92,0,1,1,0,1.83H30.77Z"/><rect class="cls-2" width="42" height="34"/></g></g></svg>