<?xml version="1.0" encoding="utf-8"?>
<!-- Generator: Adobe Illustrator 25.2.1, SVG Export Plug-In . SVG Version: 6.00 Build 0)  -->
<svg version="1.1" id="Layer_1" xmlns="http://www.w3.org/2000/svg" xmlns:xlink="http://www.w3.org/1999/xlink" x="0px" y="0px"
	 viewBox="0 0 44 40" style="enable-background:new 0 0 44 40;" xml:space="preserve">
<style type="text/css">
	.st0{fill:none;}
	.st1{fill:#003366;}
</style>
<g>
	<polygon class="st0" points="14.3,2.5 4.1,8 4.1,37.5 14.3,32 	"/>
	<polygon class="st0" points="27.8,8 16.2,2.4 16.2,32 27.8,37.6 	"/>
	<polygon class="st0" points="29.7,37.5 39.9,32 39.9,2.5 29.7,8 	"/>
	<path class="st1" d="M41.3,0.1C41,0,40.6,0,40.4,0.1L28.8,6.3L15.6,0.1c0,0-0.1,0-0.1,0c0,0-0.1,0-0.1,0c0,0-0.1,0-0.1,0
		c0,0-0.1,0-0.1,0c0,0-0.1,0-0.1,0C15,0,15,0,15,0c0,0-0.1,0-0.1,0c0,0-0.1,0-0.1,0l-12,6.5C2.4,6.7,2.3,7.1,2.3,7.4v31.7
		c0,0.3,0.2,0.6,0.5,0.8C2.9,40,3,40,3.2,40c0.2,0,0.3,0,0.4-0.1l11.6-6.2l13.2,6.3c0,0,0.1,0,0.1,0c0,0,0,0,0.1,0
		c0.1,0,0.2,0,0.2,0c0.1,0,0.2,0,0.2,0c0,0,0.1,0,0.1,0c0,0,0.1,0,0.1,0l12-6.5c0.3-0.2,0.5-0.5,0.5-0.8V0.9
		C41.7,0.6,41.6,0.3,41.3,0.1z M4.1,8l10.1-5.4V32L4.1,37.5V8z M16.2,2.4L27.8,8v29.6L16.2,32V2.4z M39.9,32l-10.1,5.4V8l10.1-5.4
		V32z"/>
</g>
</svg>
