<svg xmlns="http://www.w3.org/2000/svg" viewBox="0 0 44 40"><defs><style>.cls-1{fill:none;}.cls-2{fill:#003c6d;}</style></defs><g id="레이어_2" data-name="레이어 2"><g id="레이어_1-2" data-name="레이어 1"><rect class="cls-1" width="44" height="40"/><path class="cls-2" d="M19.36,10.64a11.16,11.16,0,0,0-1.12-4.06C17.62,5.1,17,3.7,17.58,2.37A4.17,4.17,0,0,1,20.87.11V.05l1,0h.28l1,.05V.11a4.18,4.18,0,0,1,3.3,2.26c.55,1.33,0,2.73-.66,4.21a11.16,11.16,0,0,0-1.12,4.06l-2.05,0a12.9,12.9,0,0,1,1.27-4.82c.45-1.07.88-2.09.66-2.61-.41-1-2.12-1.1-2.46-1.11h-.12c-.34,0-2.05.14-2.46,1.11-.22.52.21,1.54.66,2.61a13.09,13.09,0,0,1,1.28,4.82Z"/><path class="cls-2" d="M28.08,40H15.92a3.38,3.38,0,0,1-3.38-3.38V19.09a3.38,3.38,0,0,1,3.38-3.38v2.05a1.34,1.34,0,0,0-1.33,1.33V36.62a1.33,1.33,0,0,0,1.33,1.32H28.08a1.33,1.33,0,0,0,1.33-1.32V19.09a1.34,1.34,0,0,0-1.33-1.33V15.71a3.38,3.38,0,0,1,3.38,3.38V36.62A3.38,3.38,0,0,1,28.08,40Z"/><path class="cls-2" d="M28.42,17.7H15.58a3.18,3.18,0,0,1-3.18-3.18V12.75a3.18,3.18,0,0,1,3.18-3.18H28.42a3.19,3.19,0,0,1,3.18,3.18v1.77A3.19,3.19,0,0,1,28.42,17.7ZM15.58,11.63a1.13,1.13,0,0,0-1.13,1.12v1.77a1.13,1.13,0,0,0,1.13,1.12H28.42a1.13,1.13,0,0,0,1.13-1.12V12.75a1.13,1.13,0,0,0-1.13-1.12Z"/><rect class="cls-2" x="25.09" y="19.8" width="2.06" height="2.72"/><rect class="cls-2" x="25.09" y="24.62" width="2.06" height="6.36"/></g></g></svg>