<?xml version="1.0" encoding="utf-8"?>
<!-- Generator: Adobe Illustrator 25.2.1, SVG Export Plug-In . SVG Version: 6.00 Build 0)  -->
<svg version="1.1" id="Layer_1" xmlns="http://www.w3.org/2000/svg" xmlns:xlink="http://www.w3.org/1999/xlink" x="0px" y="0px"
	 viewBox="0 0 44 40" style="enable-background:new 0 0 44 40;" xml:space="preserve">
<style type="text/css">
	.st0{fill:none;}
	.st1{fill:#003E6B;}
</style>
<g>
	<polygon class="st0" points="4.4,34.9 4.4,38 39.6,38 39.6,34.9 26.5,34.9 26.5,32.9 36.7,32.9 36.7,10.4 30.7,10.4 30.7,27.2 
		13.2,27.2 13.2,10.4 7.3,10.4 7.3,32.9 17.5,32.9 17.5,34.9 	"/>
	<path class="st0" d="M28.7,25.2V2H15.3v23.2H28.7z M19.8,6.1h4.3v2h-4.3V6.1z M19.8,11.5h4.3v2h-4.3V11.5z"/>
	<path class="st1" d="M38.7,32.9V8.4h-8V0H13.2v8.4h-8v24.5H2.4V40h39.2v-7.1H38.7z M7.3,32.9V10.4h6v16.8h17.5V10.4h6v22.5H26.5v2
		h13.1V38H4.4v-3.1h13.1v-2H7.3z M28.7,2v23.2H15.3V2H28.7z"/>
	<rect x="19.8" y="6.1" class="st1" width="4.3" height="2"/>
	<rect x="19.8" y="11.5" class="st1" width="4.3" height="2"/>
</g>
</svg>
