<?xml version="1.0" encoding="utf-8"?>
<!-- Generator: Adobe Illustrator 25.2.1, SVG Export Plug-In . SVG Version: 6.00 Build 0)  -->
<svg version="1.1" id="Layer_1" xmlns="http://www.w3.org/2000/svg" xmlns:xlink="http://www.w3.org/1999/xlink" x="0px" y="0px"
	 viewBox="0 0 44 40" style="enable-background:new 0 0 44 40;" xml:space="preserve">
<style type="text/css">
	.st0{fill:#003E6B;}
</style>
<g>
	<g>
		<path class="st0" d="M9,34.2c1.9,2.3,4.5,4.9,7.8,4.9c0.3,0,0.6,0,1-0.1c1.4-0.2,2.7-0.8,3.9-1.4c0.4-0.2,0.8-0.4,1.2-0.5
			c0.7-0.3,1.3-0.8,1.6-1.6c0.3-0.7,0.3-1.5,0-2.2l-2.8-6.9c-0.6-1.5-1.7-1.7-2.3-1.7c-0.7,0-1.3,0.3-1.9,0.5
			c-0.4,0.1-0.7,0.3-1,0.3c0,0,0,0,0,0c-0.3,0-1.3-0.4-3.3-5.1l-0.1-0.1c0,0,0-0.1,0-0.1c0,0,0-0.1,0-0.1l-0.1-0.2
			c-0.1-0.2-0.2-0.5-0.3-0.7c-1.7-4.4-1-5.1-0.9-5.1c0.2-0.2,0.6-0.3,1-0.5c1-0.4,3.2-1.4,2.2-3.9L12,2.8C11.6,1.7,10.5,1,9.3,1
			C8.9,1,8.6,1,8.2,1.2C7.8,1.3,7.4,1.5,7,1.6c-1.3,0.5-2.7,1-3.8,1.8C0.1,5.6,0,9.7,0.3,13c0.3,3.4,1.2,7,2.9,11.1l0,0.1
			c0,0,0,0.1,0,0.1c0.5,1.3,1.1,2.5,1.7,3.7C6.2,30.4,7.5,32.4,9,34.2z M2.3,12.8c-0.2-2.9-0.2-6.1,2-7.7C5.3,4.4,6.5,4,7.7,3.6
			C8.1,3.4,8.6,3.2,9,3.1C9.1,3,9.2,3,9.3,3c0.4,0,0.7,0.2,0.8,0.5l2.8,6.9c0.1,0.1,0.1,0.3,0.1,0.4l0.1,0.1L13,11
			c-0.1,0.2-0.5,0.4-1.2,0.7c-0.5,0.2-1,0.4-1.4,0.7c-1.9,1.4-0.8,4.7,0.2,7.5c0.1,0.3,0.2,0.6,0.3,0.8l0.1,0.2l0,0l0,0.1l0.1,0.2
			c1.3,3.3,2.9,6.4,5.1,6.4c0.1,0,0.2,0,0.3,0c0.5-0.1,1-0.3,1.5-0.4c0.4-0.2,0.9-0.3,1.2-0.3h0l0.1,0h0.1l0,0c0,0,0.2,0.1,0.3,0.4
			l2.8,6.9c0.1,0.3,0,0.5,0,0.7c-0.1,0.1-0.2,0.3-0.5,0.5c-0.4,0.2-0.9,0.4-1.3,0.6c-1.1,0.5-2.3,1-3.4,1.2c-0.2,0-0.4,0.1-0.6,0.1
			h0c-2.5,0-4.6-2.2-6.2-4.1c-1.4-1.7-2.6-3.6-3.8-5.9c-0.6-1.1-1.1-2.3-1.6-3.6l0,0l0,0C3.5,19.4,2.6,16,2.3,12.8z"/>
	</g>
	<g>
		<g>
			<path class="st0" d="M36.5,11.2C35.7,11,35,11,34.2,11c-5.3,0-9.6,4.3-9.6,9.6c0,1.8,0.5,3.5,1.4,4.9l0.1,0.1L26,25.7l-1,1.6
				c-0.3,0.5-0.4,1.1-0.1,1.6c0.3,0.5,0.8,0.8,1.4,0.8c1.2,0.1,7.4,0.4,8,0.4c5.3,0,9.6-4.3,9.6-9.6C43.8,16.1,40.8,12.3,36.5,11.2z
				 M34.2,28.1c-0.4,0-5.7-0.3-6.8-0.3l-0.3,0l0.2-0.3l0.9-1.3c0.2-0.4,0.2-0.8-0.1-1.2l0-0.1c-0.9-1.3-1.4-2.8-1.4-4.3
				c0-4.2,3.4-7.6,7.6-7.6c0.6,0,1.2,0.1,1.8,0.2c3.4,0.8,5.7,3.9,5.7,7.3C41.8,24.7,38.4,28.1,34.2,28.1z"/>
		</g>
		<path class="st0" d="M30.2,19.4c-0.6,0-1.1,0.5-1.1,1.1c0,0.6,0.5,1.1,1.1,1.1c0.6,0,1.1-0.5,1.1-1.1
			C31.2,19.9,30.8,19.4,30.2,19.4z"/>
		<path class="st0" d="M34.2,19.4c-0.6,0-1.1,0.5-1.1,1.1c0,0.6,0.5,1.1,1.1,1.1c0.6,0,1.1-0.5,1.1-1.1
			C35.3,19.9,34.8,19.4,34.2,19.4z"/>
		<path class="st0" d="M38.2,19.4c-0.6,0-1.1,0.5-1.1,1.1c0,0.6,0.5,1.1,1.1,1.1c0.6,0,1.1-0.5,1.1-1.1
			C39.2,19.9,38.7,19.4,38.2,19.4z"/>
	</g>
</g>
</svg>
