<svg xmlns="http://www.w3.org/2000/svg" viewBox="0 0 44 40"><defs><style>.cls-1{fill:none;}.cls-2{fill:#003e6b;}</style></defs><g id="레이어_2" data-name="레이어 2"><g id="레이어_1-2" data-name="레이어 1"><rect class="cls-1" width="44" height="40"/><path class="cls-2" d="M40.28,16.53a3.62,3.62,0,0,0-2.14-.87h-.37a21.63,21.63,0,0,0-1.93-5.32,14.6,14.6,0,0,0-13.68-8.1A15,15,0,0,0,8.44,10.31a22.72,22.72,0,0,0-2.11,5.31H5.85a3.62,3.62,0,0,0-2.14.88,10.37,10.37,0,0,0,0,15,3.5,3.5,0,0,0,2.14.87h1c.83,1.62,3.2,4,10,4.28a1.83,1.83,0,0,0,1.69,1.1h2.88a1.84,1.84,0,0,0,1.84-1.84V34.85A1.84,1.84,0,0,0,21.38,33H18.5a1.84,1.84,0,0,0-1.84,1.81c-4.44-.19-6.55-1.4-7.55-2.44h1.58a1.71,1.71,0,0,0,1.7-1.68V17.3a1.72,1.72,0,0,0-1.7-1.68H8.22A20.54,20.54,0,0,1,10,11.2,13.27,13.27,0,0,1,22.16,4.06a12.89,12.89,0,0,1,12.07,7.13,19.57,19.57,0,0,1,1.67,4.47H33.31a1.71,1.71,0,0,0-1.7,1.68v13.4a1.71,1.71,0,0,0,1.7,1.68v0h4.84a3.56,3.56,0,0,0,2.14-.88,10.37,10.37,0,0,0,0-15Zm-29.72.92V30.56H5.86A1.83,1.83,0,0,1,5,30.18,8.54,8.54,0,0,1,5,17.84a1.8,1.8,0,0,1,.9-.39h4.7ZM39,30.21a1.77,1.77,0,0,1-.9.38h-4.7V17.49h4.7a1.87,1.87,0,0,1,.89.37,8.55,8.55,0,0,1,0,12.35Z"/><path class="cls-2" d="M22,29.57a.92.92,0,0,1-.43-.11,12.5,12.5,0,0,1-6.16-7.23,2.74,2.74,0,0,1-.15-.58h0s0-.05,0-.07A4,4,0,0,1,19.18,17,4,4,0,0,1,22,18.13a4,4,0,0,1,5.35-.26,4,4,0,0,1,1.41,3.7s0,.05,0,.07v0a3.11,3.11,0,0,1-.15.56,12.5,12.5,0,0,1-6.16,7.23A.92.92,0,0,1,22,29.57Zm-4.94-8.24a2.49,2.49,0,0,0,.08.32v0A10.58,10.58,0,0,0,22,27.61a10.55,10.55,0,0,0,4.85-5.92v0a1.67,1.67,0,0,0,.08-.32h0v0a2.16,2.16,0,0,0-.76-2,2.15,2.15,0,0,0-3,.3l-.45.54a.91.91,0,0,1-1.42,0l-.45-.54a2.15,2.15,0,0,0-3-.3,2.16,2.16,0,0,0-.76,2Z"/></g></g></svg>