<svg xmlns="http://www.w3.org/2000/svg" viewBox="0 0 44 40"><defs><style>.cls-1{fill:none;}.cls-2{fill:#003e6b;}</style></defs><g id="레이어_2" data-name="레이어 2"><g id="레이어_1-2" data-name="레이어 1"><rect class="cls-1" width="44" height="40"/><path class="cls-2" d="M29.47,13.51H14.53l-.39-2.29.08,0L7.72,0H36.28l-6.5,11.2.08,0ZM16.91,11.16H27.09L32.2,2.35H11.8Z"/><path class="cls-2" d="M39,40H5l.1-1.27c.11-1.27.18-3,.26-4.92.24-5.82.54-13,2.06-16.07,1.68-3.34,4-5.53,6.76-6.52l.19-.06H29.67l.19.06c2.81,1,5.08,3.18,6.76,6.52,1.52,3,1.82,10.25,2.06,16.06.08,2,.15,3.66.26,4.93ZM7.49,37.65h29c-.07-1.08-.12-2.35-.18-3.75-.22-5.29-.52-12.54-1.81-15.11h0a10.13,10.13,0,0,0-5.25-5.28H14.73a10.13,10.13,0,0,0-5.25,5.28C8.19,21.36,7.89,28.61,7.67,33.9,7.61,35.3,7.56,36.57,7.49,37.65Z"/><rect class="cls-2" x="20.83" y="4.76" width="2.35" height="6.11"/><path class="cls-2" d="M22,33.18a6.66,6.66,0,1,1,6.65-6.65A6.65,6.65,0,0,1,22,33.18Zm0-11a4.31,4.31,0,1,0,4.31,4.31A4.32,4.32,0,0,0,22,22.22Z"/></g></g></svg>