<svg xmlns="http://www.w3.org/2000/svg" viewBox="0 0 44 40"><defs><style>.cls-1{fill:none;}.cls-2{fill:#003e6b;}</style></defs><g id="레이어_2" data-name="레이어 2"><g id="레이어_1-2" data-name="레이어 1"><rect class="cls-1" width="44" height="40"/><path class="cls-2" d="M36.93,25H7.07A1.85,1.85,0,0,1,5.22,23.1V7.24A1.85,1.85,0,0,1,7.07,5.39H36.93a1.85,1.85,0,0,1,1.85,1.85V23.1A1.85,1.85,0,0,1,36.93,25ZM7.21,23H36.79V7.38H7.21Z"/><path class="cls-2" d="M26.2,18.46l-1.39-1.28a4.61,4.61,0,0,0,.63-2.55,4.67,4.67,0,1,0-4.66,4.85,4.73,4.73,0,0,0,2.68-.84l1.39,1.28a1,1,0,0,0,.67.27,1,1,0,0,0,.73-.32A1,1,0,0,0,26.2,18.46ZM19,16.79A2.69,2.69,0,0,1,18.81,13a2.64,2.64,0,0,1,2-.87,2.68,2.68,0,0,1,2.68,2.58,2.69,2.69,0,0,1-2.68,2.79A2.72,2.72,0,0,1,19,16.79Z"/><path class="cls-2" d="M40.8.85H3.2A2.7,2.7,0,0,0,.5,3.55V26.79a2.7,2.7,0,0,0,2.7,2.7H21V34H6.92a2.59,2.59,0,1,0,0,5.16H37.08a2.59,2.59,0,1,0,0-5.16H23v-4.5H40.8a2.7,2.7,0,0,0,2.7-2.7V3.55A2.7,2.7,0,0,0,40.8.85ZM37.08,36c.49,0,.84.31.84.59s-.35.6-.84.6H6.92c-.49,0-.84-.32-.84-.6s.35-.59.84-.59Zm4.43-9.19a.71.71,0,0,1-.71.71H3.2a.71.71,0,0,1-.71-.71V3.55a.71.71,0,0,1,.71-.72H40.8a.71.71,0,0,1,.71.72Z"/></g></g></svg>