<svg xmlns="http://www.w3.org/2000/svg" viewBox="0 0 44 40"><defs><style>.cls-1{fill:#036;}.cls-2{fill:none;}</style></defs><g id="레이어_2" data-name="레이어 2"><g id="레이어_1-2" data-name="레이어 1"><path class="cls-1" d="M22,13.78a6.89,6.89,0,1,1,6.89-6.89A6.9,6.9,0,0,1,22,13.78ZM22,2.23a4.66,4.66,0,1,0,4.66,4.66A4.66,4.66,0,0,0,22,2.23Z"/><path class="cls-1" d="M22,40a35.86,35.86,0,0,1-6.8-.64h0a31.06,31.06,0,0,1-6.67-2,1.11,1.11,0,0,1-.66-.93c-.07-.79-.1-1.5-.1-2.18,0-10.39,6.38-18.86,14.23-18.86s14.23,8.47,14.23,18.86c0,.68,0,1.39-.1,2.18a1.11,1.11,0,0,1-.66.93,31.06,31.06,0,0,1-6.67,2h0A35.86,35.86,0,0,1,22,40Zm-5.48-2.67a34.67,34.67,0,0,0,11,0V31.14a1.12,1.12,0,1,1,2.24,0v5.75A28.9,28.9,0,0,0,34,35.55c0-.46,0-.9,0-1.32,0-9.16-5.38-16.62-12-16.62S10,25.07,10,34.23c0,.42,0,.86,0,1.32a28.9,28.9,0,0,0,4.25,1.34V31.14a1.12,1.12,0,1,1,2.23,0Z"/><rect class="cls-2" width="44" height="40"/></g></g></svg>