<svg xmlns="http://www.w3.org/2000/svg" viewBox="0 0 44 40"><defs><style>.cls-1{fill:none;}.cls-2{fill:#036;}</style></defs><g id="레이어_2" data-name="레이어 2"><g id="레이어_1-2" data-name="레이어 1"><rect class="cls-1" width="44" height="40"/><path class="cls-2" d="M36.59,40H26.53a1.12,1.12,0,0,1-1.12-1.12V26a1.13,1.13,0,0,1,.32-.8,13.27,13.27,0,0,0,4-11.28,1.49,1.49,0,0,1,0-.21A11.42,11.42,0,0,0,22.85,3.21a1.13,1.13,0,0,1,0-2.06A13.66,13.66,0,0,1,42,13.57a15.57,15.57,0,0,1-4.28,12.84V38.88A1.13,1.13,0,0,1,36.59,40Zm-8.94-2.25h7.82V26a1.14,1.14,0,0,1,.33-.8,13.25,13.25,0,0,0,4-11.28,1.49,1.49,0,0,1,0-.21A11.43,11.43,0,0,0,28.34,2.25a11.12,11.12,0,0,0-2.24.22,13.65,13.65,0,0,1,5.84,11.1,15.55,15.55,0,0,1-4.29,12.84Z"/><path class="cls-2" d="M26.53,40h-12a1.12,1.12,0,0,1-1.12-1.12V30.36H9.13a4.69,4.69,0,0,1-3.78-1.42,3.4,3.4,0,0,1-.74-2.56V21.91H2.2a1.12,1.12,0,0,1-1-.55,1.15,1.15,0,0,1,0-1.12l3.39-6v-.52a13.67,13.67,0,0,1,27.33-.1,15.55,15.55,0,0,1-4.29,12.84V38.88A1.12,1.12,0,0,1,26.53,40ZM15.68,37.75h9.73V26a1.13,1.13,0,0,1,.32-.8,13.27,13.27,0,0,0,4-11.28,1.49,1.49,0,0,1,0-.21A11.42,11.42,0,0,0,22.85,3.21a11.26,11.26,0,0,0-4.58-1A11.43,11.43,0,0,0,6.86,13.67v.82a1,1,0,0,1-.15.54L4.12,19.66H5.73a1.14,1.14,0,0,1,1.13,1.13v5.67a1.36,1.36,0,0,1,0,.2,1.15,1.15,0,0,0,.25.85,2.73,2.73,0,0,0,2,.6h5.42a1.12,1.12,0,0,1,1.13,1.12Z"/></g></g></svg>