<svg xmlns="http://www.w3.org/2000/svg" viewBox="0 0 44 40"><defs><style>.cls-1{fill:none;}.cls-2{fill:#003e6b;}</style></defs><g id="레이어_2" data-name="레이어 2"><g id="레이어_1-2" data-name="레이어 1"><rect class="cls-1" width="44" height="40"/><path class="cls-2" d="M31.24,8.32H13.82a.95.95,0,0,1,0-1.89H31.24a.95.95,0,0,1,0,1.89Z"/><path class="cls-2" d="M31.24,13.51H13.82a.95.95,0,0,1,0-1.89H31.24a.95.95,0,0,1,0,1.89Z"/><path class="cls-2" d="M42.68,17.31a.13.13,0,0,0,0-.06.28.28,0,0,0,0-.09.13.13,0,0,0,0-.06l0-.08a.14.14,0,0,0,0-.06.3.3,0,0,0,0-.08l0-.05-.09-.12h0L37.5,11a1.3,1.3,0,0,0-.22-.19v-7A2.84,2.84,0,0,0,34.44,1H10.62A2.84,2.84,0,0,0,7.78,3.83v7a1.3,1.3,0,0,0-.22.19L2.61,16.71h0l-.09.12,0,.05a.3.3,0,0,0,0,.08.14.14,0,0,0,0,.06l0,.08s0,0,0,.06a.28.28,0,0,0,0,.09.13.13,0,0,0,0,.06V36.17A2.83,2.83,0,0,0,5.21,39H39.85a2.83,2.83,0,0,0,2.83-2.83V17.31Zm-2.27-.06-.71.62h0L37.28,20V13.65ZM9.67,11.65V3.83a1,1,0,0,1,.95-.94H34.44a.94.94,0,0,1,1,.94V21.68L31,25.54a4.84,4.84,0,0,1-2.68,1H16.73a4.84,4.84,0,0,1-2.68-1L9.67,21.68v-10Zm-4.3,6.23h0l-.71-.62,3.13-3.6V20ZM40.79,36.17a.94.94,0,0,1-.94.94H5.21a.94.94,0,0,1-.94-.94V19.43L12.8,27a6.78,6.78,0,0,0,3.93,1.48h11.6A6.78,6.78,0,0,0,32.26,27l8.53-7.53Z"/></g></g></svg>