<svg xmlns="http://www.w3.org/2000/svg" viewBox="0 0 44 40.02"><defs><style>.cls-1{fill:none;}.cls-2{fill:#003c6d;}</style></defs><g id="레이어_2" data-name="레이어 2"><g id="레이어_1-2" data-name="레이어 1"><rect class="cls-1" width="44" height="40"/><path class="cls-2" d="M22.09,40a1.12,1.12,0,0,1-.56-.15l-.08-.06c-.51-.37-5.11-3.7-9.39-6.45a17.76,17.76,0,0,1-3.49-3.11A28.28,28.28,0,0,1,2.45,18.79a26.31,26.31,0,0,1,1-16.28,1.08,1.08,0,0,1,1.21-.68c.1,0,10.71,2,16.92-1.66a1.11,1.11,0,0,1,1.09,0c5.66,3.32,14.84,2,16.63,1.71l.29,0a1.09,1.09,0,0,1,1.22.68,26.56,26.56,0,0,1,1.54,13.37C41,24.72,35.52,31.17,32.12,33.36c-1.19.76-2.4,1.57-3.54,2.35-3,2.07-5.58,3.9-5.85,4.11A1.15,1.15,0,0,1,22.09,40ZM5.12,4.1a24.1,24.1,0,0,0-.58,14.15,26.16,26.16,0,0,0,5.64,10.57,16.48,16.48,0,0,0,3,2.73c3.58,2.29,7.37,5,8.87,6.07,1-.71,3-2.14,5.28-3.69,1.15-.79,2.38-1.61,3.59-2.38,2.94-1.9,8-7.91,9.22-16A24.13,24.13,0,0,0,39.05,4.1c-2.72.39-11.14,1.29-17-1.77C16.25,5.41,7.89,4.51,5.12,4.1Z"/><rect class="cls-2" x="13.26" y="16.84" width="17.66" height="2.58"/><rect class="cls-2" x="20.8" y="9.3" width="2.58" height="17.66"/></g></g></svg>