<svg xmlns="http://www.w3.org/2000/svg" viewBox="0 0 44 40"><defs><style>.cls-1{fill:none;}.cls-2{fill:#003c6d;}</style></defs><g id="레이어_2" data-name="레이어 2"><g id="레이어_1-2" data-name="레이어 1"><rect class="cls-1" width="44" height="40"/><path class="cls-2" d="M41.65,40H2.35l1.14-1.78s1.67-2.58,3.18-5.41c.59-1.08.75-4,.9-6.72.2-3.82.44-8.14,1.8-10.84a10.62,10.62,0,0,1,5.75-5.61L9.53,0H34.47L28.88,9.64a10.59,10.59,0,0,1,5.75,5.61c1.36,2.7,1.6,7,1.8,10.83.15,2.78.31,5.65.9,6.73,1.52,2.83,3.16,5.39,3.18,5.41ZM6.54,37.69H37.47c-.61-1-1.4-2.35-2.17-3.78s-1-4.4-1.17-7.7c-.19-3.59-.41-7.65-1.56-9.93-1.75-3.48-4-4.52-5.63-4.77l-1.66-.26,5.19-8.94H13.53l5.19,8.94-1.66.26c-1.6.25-3.88,1.29-5.63,4.77-1.15,2.28-1.37,6.34-1.56,9.93-.18,3.3-.34,6.16-1.17,7.7S7.15,36.68,6.54,37.69Z"/><rect class="cls-2" x="16.93" y="9.04" width="10.14" height="2.31"/><path class="cls-2" d="M22.31,31.91a6.53,6.53,0,1,1,6.53-6.53A6.54,6.54,0,0,1,22.31,31.91Zm0-10.76a4.23,4.23,0,1,0,4.23,4.23A4.24,4.24,0,0,0,22.31,21.15Z"/></g></g></svg>