<svg xmlns="http://www.w3.org/2000/svg" viewBox="0 0 42 34"><defs><style>.cls-1{fill:#005bac;}.cls-2{fill:none;}</style></defs><g id="레이어_2" data-name="레이어 2"><g id="레이어_1-2" data-name="레이어 1"><path class="cls-1" d="M37.37,17.79H4.63a.94.94,0,0,1,0-1.88H37.37a.94.94,0,0,1,0,1.88Z"/><path class="cls-1" d="M37.37,26.38a.94.94,0,0,1-.94-.94V16.85a.94.94,0,1,1,1.87,0v8.59A.94.94,0,0,1,37.37,26.38Z"/><path class="cls-1" d="M4.63,26.38a.94.94,0,0,1-.93-.94V16.85a.94.94,0,1,1,1.87,0v8.59A.94.94,0,0,1,4.63,26.38Z"/><path class="cls-1" d="M21,26a.94.94,0,0,1-.94-.93V8.78a.94.94,0,1,1,1.88,0V25.09A.94.94,0,0,1,21,26Z"/><path class="cls-1" d="M22.82,9.49H19.18a2.81,2.81,0,0,1-2.81-2.81V3A2.81,2.81,0,0,1,19.18.23h3.64A2.81,2.81,0,0,1,25.63,3V6.68A2.81,2.81,0,0,1,22.82,9.49ZM19.18,2.1a.94.94,0,0,0-.94.94V6.68a.94.94,0,0,0,.94.94h3.64a.94.94,0,0,0,.94-.94V3a.94.94,0,0,0-.94-.94Z"/><path class="cls-1" d="M6.46,33.77H2.81A2.81,2.81,0,0,1,0,31V27.32a2.81,2.81,0,0,1,2.81-2.81H6.46a2.81,2.81,0,0,1,2.81,2.81V31A2.81,2.81,0,0,1,6.46,33.77ZM2.81,26.38a1,1,0,0,0-.94.94V31a1,1,0,0,0,.94.94H6.46A.94.94,0,0,0,7.39,31V27.32a.94.94,0,0,0-.93-.94Z"/><path class="cls-1" d="M22.82,33.77H19.18A2.81,2.81,0,0,1,16.37,31V27.32a2.81,2.81,0,0,1,2.81-2.81h3.64a2.81,2.81,0,0,1,2.81,2.81V31A2.81,2.81,0,0,1,22.82,33.77Zm-3.64-7.39a.94.94,0,0,0-.94.94V31a.94.94,0,0,0,.94.94h3.64a.94.94,0,0,0,.94-.94V27.32a.94.94,0,0,0-.94-.94Z"/><path class="cls-1" d="M39.19,33.77H35.54A2.81,2.81,0,0,1,32.73,31V27.32a2.81,2.81,0,0,1,2.81-2.81h3.65A2.81,2.81,0,0,1,42,27.32V31A2.81,2.81,0,0,1,39.19,33.77Zm-3.65-7.39a.94.94,0,0,0-.93.94V31a.94.94,0,0,0,.93.94h3.65a1,1,0,0,0,.94-.94V27.32a1,1,0,0,0-.94-.94Z"/><rect class="cls-2" width="42" height="34"/></g></g></svg>