<?xml version="1.0" encoding="utf-8"?>
<!-- Generator: Adobe Illustrator 25.2.1, SVG Export Plug-In . SVG Version: 6.00 Build 0)  -->
<svg version="1.1" id="Layer_1" xmlns="http://www.w3.org/2000/svg" xmlns:xlink="http://www.w3.org/1999/xlink" x="0px" y="0px"
	 viewBox="0 0 44 40" style="enable-background:new 0 0 44 40;" xml:space="preserve">
<style type="text/css">
	.st0{fill:#003E6B;}
</style>
<g>
	<path class="st0" d="M31.3,0.8H12.7c-5.5,0-9.9,4.5-9.9,9.9v18.5c0,5.5,4.5,9.9,9.9,9.9h18.5c5.5,0,9.9-4.5,9.9-9.9V10.7
		C41.2,5.3,36.7,0.8,31.3,0.8z M7.7,15.3c0-3.8,3.1-6.9,6.9-6.9s6.9,3.1,6.9,6.9s-3.1,6.9-6.9,6.9S7.7,19.2,7.7,15.3z M35,27.9
		c-0.1,0.2-3.3,5.7-12.2,5.7c-8.8,0-11.6-5.6-11.7-5.8c-0.5-1-0.1-2.2,0.9-2.7c1-0.5,2.2-0.1,2.7,0.9c0.1,0.2,2,3.6,8.2,3.6
		c6.4,0,8.6-3.5,8.7-3.7c0.6-0.9,1.8-1.3,2.7-0.7C35.2,25.8,35.6,27,35,27.9z M36.3,17.1c-0.2,1.8-1.7,5.1-6.1,5.1
		c-4.4,0-5.9-3.6-6.1-5.5l0-0.2v-5.4c0-1.1,0.9-2,2-2s2,0.9,2,2v5.3c0.1,0.6,0.5,1.9,2.2,1.9c1.7,0,2.1-1.1,2.2-1.5v-5.7
		c0,1.1,0.9,2,2,2c1.1,0,2-0.9,2-2c0-1.1-0.9-2-2-2c-0.3,0-0.5,0.1-0.8,0.2c0.2-0.1,0.5-0.2,0.8-0.2c1.1,0,2,0.9,2,2L36.3,17.1z"/>
	<path class="st0" d="M17.6,15.3c0-1.6-1.3-2.9-2.9-2.9s-2.9,1.3-2.9,2.9s1.3,2.9,2.9,2.9S17.6,17,17.6,15.3z"/>
</g>
</svg>
