<svg xmlns="http://www.w3.org/2000/svg" viewBox="0 0 44 40"><defs><style>.cls-1{fill:#003e6b;}.cls-2{fill:none;}</style></defs><g id="레이어_2" data-name="레이어 2"><g id="레이어_1-2" data-name="레이어 1"><path class="cls-1" d="M30.71,39H2.85a1.07,1.07,0,0,1-1.06-1.06V2.06A1.06,1.06,0,0,1,2.85,1H30.71a1.05,1.05,0,0,1,1.06,1.06V7.2H29.65V3.12H3.92V36.88H29.65V29.23h2.12v8.71A1.06,1.06,0,0,1,30.71,39Z"/><path class="cls-1" d="M24.44,29.4h-.09l-8.83-.74a1.06,1.06,0,0,1-.91-1.41l2.94-8.35a1.09,1.09,0,0,1,.43-.54L34.69,7.55a1.05,1.05,0,0,1,1.46.31L42,17a1.07,1.07,0,0,1,.14.8,1.08,1.08,0,0,1-.46.67L25,29.23A1.06,1.06,0,0,1,24.44,29.4Zm-7.37-2.74,7.09.6,15.52-10L35,9.9,19.43,20Z"/><rect class="cls-2" width="44" height="40"/></g></g></svg>