<?xml version="1.0" encoding="utf-8"?>
<!-- Generator: Adobe Illustrator 25.2.1, SVG Export Plug-In . SVG Version: 6.00 Build 0)  -->
<svg version="1.1" id="Layer_1" xmlns="http://www.w3.org/2000/svg" xmlns:xlink="http://www.w3.org/1999/xlink" x="0px" y="0px"
	 viewBox="0 0 44 40" style="enable-background:new 0 0 44 40;" xml:space="preserve">
<style type="text/css">
	.st0{fill:#003E6B;}
</style>
<path class="st0" d="M7.4,37.2c3.2,0,6-2.1,6.8-5.2l0.2-0.7h17.5l0.1,0.8c0.4,2.9,2.9,5.1,5.8,5.1c3.2,0,5.9-2.6,5.9-5.9
	s-2.6-5.9-5.9-5.9c-2.1,0-4,1.1-5,2.9l-0.3,0.5H14.4l-0.2-0.7c-0.5-1.7-1.6-3.2-3.1-4.1l-0.6-0.4l5.1-18.4h6.6V2.8H15L13.4,4L8.2,23
	l-0.8,0c-3.9,0-7.1,3.2-7.1,7.1C0.3,34,3.5,37.2,7.4,37.2z M37.8,28c1.9,0,3.4,1.5,3.4,3.4c0,1.9-1.5,3.4-3.4,3.4
	c-1.9,0-3.4-1.5-3.4-3.4C34.5,29.5,36,28,37.8,28z M7.4,25.5c2.6,0,4.6,2.1,4.6,4.6s-2.1,4.6-4.6,4.6s-4.6-2.1-4.6-4.6
	S4.9,25.5,7.4,25.5z"/>
</svg>
